{"glyphs":{"0":{"ha":608,"x_min":87,"x_max":521,"o":"m 174 0 l 174 87 l 434 87 l 434 0 l 174 0 m 260 260 l 260 434 l 347 434 l 347 260 l 260 260 m 87 87 l 87 608 l 174 608 l 174 260 l 260 260 l 260 174 l 174 174 l 174 87 l 87 87 m 434 87 l 434 434 l 347 434 l 347 521 l 434 521 l 434 608 l 521 608 l 521 87 l 434 87 m 174 608 l 174 694 l 434 694 l 434 608 l 174 608 z "},"1":{"ha":608,"x_min":87,"x_max":521,"o":"m 87 434 l 87 521 l 174 521 l 174 434 l 87 434 m 87 0 l 87 87 l 260 87 l 260 521 l 174 521 l 174 608 l 260 608 l 260 694 l 347 694 l 347 87 l 521 87 l 521 0 l 87 0 z "},"2":{"ha":608,"x_min":87,"x_max":521,"o":"m 87 0 l 87 174 l 174 174 l 174 87 l 521 87 l 521 0 l 87 0 m 174 174 l 174 260 l 260 260 l 260 174 l 174 174 m 260 260 l 260 347 l 347 347 l 347 260 l 260 260 m 347 347 l 347 434 l 434 434 l 434 347 l 347 347 m 87 521 l 87 608 l 174 608 l 174 521 l 87 521 m 434 434 l 434 608 l 521 608 l 521 434 l 434 434 m 174 608 l 174 694 l 434 694 l 434 608 l 174 608 z "},"3":{"ha":608,"x_min":87,"x_max":521,"o":"m 174 0 l 174 87 l 434 87 l 434 0 l 174 0 m 87 87 l 87 174 l 174 174 l 174 87 l 87 87 m 434 87 l 434 347 l 521 347 l 521 87 l 434 87 m 260 347 l 260 434 l 434 434 l 434 347 l 260 347 m 87 521 l 87 608 l 174 608 l 174 521 l 87 521 m 434 434 l 434 608 l 521 608 l 521 434 l 434 434 m 174 608 l 174 694 l 434 694 l 434 608 l 174 608 z "},"4":{"ha":608,"x_min":87,"x_max":608,"o":"m 174 347 l 174 434 l 260 434 l 260 347 l 174 347 m 260 434 l 260 521 l 347 521 l 347 434 l 260 434 m 434 0 l 434 174 l 87 174 l 87 347 l 174 347 l 174 260 l 434 260 l 434 521 l 347 521 l 347 608 l 434 608 l 434 694 l 521 694 l 521 260 l 608 260 l 608 174 l 521 174 l 521 0 l 434 0 z "},"5":{"ha":608,"x_min":87,"x_max":521,"o":"m 174 0 l 174 87 l 434 87 l 434 0 l 174 0 m 87 87 l 87 174 l 174 174 l 174 87 l 87 87 m 434 87 l 434 347 l 521 347 l 521 87 l 434 87 m 87 347 l 87 694 l 521 694 l 521 608 l 174 608 l 174 434 l 434 434 l 434 347 l 87 347 z "},"6":{"ha":608,"x_min":87,"x_max":521,"o":"m 174 0 l 174 87 l 434 87 l 434 0 l 174 0 m 434 87 l 434 347 l 521 347 l 521 87 l 434 87 m 87 87 l 87 521 l 174 521 l 174 434 l 434 434 l 434 347 l 174 347 l 174 87 l 87 87 m 174 521 l 174 608 l 260 608 l 260 521 l 174 521 m 260 608 l 260 694 l 434 694 l 434 608 l 260 608 z "},"7":{"ha":608,"x_min":87,"x_max":521,"o":"m 174 0 l 174 174 l 260 174 l 260 0 l 174 0 m 260 174 l 260 347 l 347 347 l 347 174 l 260 174 m 347 347 l 347 521 l 434 521 l 434 347 l 347 347 m 434 521 l 434 608 l 87 608 l 87 694 l 521 694 l 521 521 l 434 521 z "},"8":{"ha":608,"x_min":87,"x_max":521,"o":"m 174 0 l 174 87 l 434 87 l 434 0 l 174 0 m 87 87 l 87 347 l 174 347 l 174 87 l 87 87 m 434 87 l 434 347 l 521 347 l 521 87 l 434 87 m 174 347 l 174 434 l 434 434 l 434 347 l 174 347 m 87 434 l 87 608 l 174 608 l 174 434 l 87 434 m 434 434 l 434 608 l 521 608 l 521 434 l 434 434 m 174 608 l 174 694 l 434 694 l 434 608 l 174 608 z "},"9":{"ha":608,"x_min":87,"x_max":521,"o":"m 174 0 l 174 87 l 347 87 l 347 0 l 174 0 m 347 87 l 347 174 l 434 174 l 434 87 l 347 87 m 87 347 l 87 608 l 174 608 l 174 347 l 87 347 m 434 174 l 434 260 l 174 260 l 174 347 l 434 347 l 434 608 l 521 608 l 521 174 l 434 174 m 174 608 l 174 694 l 434 694 l 434 608 l 174 608 z "}," ":{"ha":608,"x_min":0,"x_max":0,"o":""},"!":{"ha":608,"x_min":260,"x_max":347,"o":"m 260 0 l 260 87 l 347 87 l 347 0 l 260 0 m 260 174 l 260 694 l 347 694 l 347 174 l 260 174 z "},"\"":{"ha":608,"x_min":174,"x_max":434,"o":"m 174 521 l 174 781 l 260 781 l 260 521 l 174 521 m 347 521 l 347 781 l 434 781 l 434 521 l 347 521 z "},"#":{"ha":608,"x_min":0,"x_max":608,"o":"m 347 260 l 347 434 l 260 434 l 260 260 l 347 260 m 87 0 l 87 174 l 0 174 l 0 260 l 174 260 l 174 434 l 87 434 l 87 521 l 260 521 l 260 694 l 347 694 l 347 521 l 434 521 l 434 694 l 521 694 l 521 521 l 608 521 l 608 434 l 434 434 l 434 260 l 521 260 l 521 174 l 347 174 l 347 0 l 260 0 l 260 174 l 174 174 l 174 0 l 87 0 z "},"$":{"ha":608,"x_min":87,"x_max":521,"o":"m 434 87 l 434 260 l 521 260 l 521 87 l 434 87 m 87 347 l 87 521 l 174 521 l 174 347 l 87 347 m 260 -87 l 260 0 l 87 0 l 87 87 l 260 87 l 260 260 l 174 260 l 174 347 l 260 347 l 260 521 l 174 521 l 174 608 l 260 608 l 260 694 l 347 694 l 347 608 l 521 608 l 521 521 l 347 521 l 347 347 l 434 347 l 434 260 l 347 260 l 347 87 l 434 87 l 434 0 l 347 0 l 347 -87 l 260 -87 z "},"%":{"ha":608,"x_min":0,"x_max":608,"o":"m 87 0 l 87 87 l 174 87 l 174 0 l 87 0 m 434 0 l 434 87 l 521 87 l 521 0 l 434 0 m 174 87 l 174 260 l 260 260 l 260 87 l 174 87 m 347 87 l 347 260 l 434 260 l 434 87 l 347 87 m 521 87 l 521 260 l 608 260 l 608 87 l 521 87 m 434 260 l 434 347 l 521 347 l 521 260 l 434 260 m 87 347 l 87 434 l 174 434 l 174 347 l 87 347 m 260 260 l 260 434 l 347 434 l 347 260 l 260 260 m 0 434 l 0 608 l 87 608 l 87 434 l 0 434 m 174 434 l 174 608 l 260 608 l 260 434 l 174 434 m 347 434 l 347 608 l 434 608 l 434 434 l 347 434 m 87 608 l 87 694 l 174 694 l 174 608 l 87 608 m 434 608 l 434 694 l 521 694 l 521 608 l 434 608 z "},"&":{"ha":608,"x_min":87,"x_max":608,"o":"m 174 0 l 174 87 l 434 87 l 434 0 l 174 0 m 521 0 l 521 87 l 608 87 l 608 0 l 521 0 m 434 87 l 434 260 l 521 260 l 521 87 l 434 87 m 87 87 l 87 347 l 174 347 l 174 87 l 87 87 m 347 260 l 347 347 l 434 347 l 434 260 l 347 260 m 174 347 l 174 434 l 347 434 l 347 347 l 174 347 m 521 260 l 521 434 l 608 434 l 608 260 l 521 260 m 87 434 l 87 608 l 174 608 l 174 434 l 87 434 m 347 434 l 347 608 l 434 608 l 434 434 l 347 434 m 174 608 l 174 694 l 347 694 l 347 608 l 174 608 z "},"'":{"ha":608,"x_min":260,"x_max":347,"o":"m 260 521 l 260 781 l 347 781 l 347 521 l 260 521 z "},"(":{"ha":608,"x_min":174,"x_max":434,"o":"m 347 -174 l 347 -87 l 434 -87 l 434 -174 l 347 -174 m 260 -87 l 260 87 l 347 87 l 347 -87 l 260 -87 m 174 87 l 174 521 l 260 521 l 260 87 l 174 87 m 260 521 l 260 694 l 347 694 l 347 521 l 260 521 m 347 694 l 347 781 l 434 781 l 434 694 l 347 694 z "},")":{"ha":608,"x_min":174,"x_max":434,"o":"m 174 -174 l 174 -87 l 260 -87 l 260 -174 l 174 -174 m 260 -87 l 260 87 l 347 87 l 347 -87 l 260 -87 m 347 87 l 347 521 l 434 521 l 434 87 l 347 87 m 260 521 l 260 694 l 347 694 l 347 521 l 260 521 m 174 694 l 174 781 l 260 781 l 260 694 l 174 694 z "},"*":{"ha":608,"x_min":87,"x_max":521,"o":"m 87 174 l 87 260 l 174 260 l 174 174 l 87 174 m 434 174 l 434 260 l 521 260 l 521 174 l 434 174 m 87 347 l 87 434 l 174 434 l 174 347 l 87 347 m 434 347 l 434 434 l 521 434 l 521 347 l 434 347 m 260 87 l 260 260 l 174 260 l 174 347 l 260 347 l 260 521 l 347 521 l 347 347 l 434 347 l 434 260 l 347 260 l 347 87 l 260 87 z "},"+":{"ha":608,"x_min":87,"x_max":521,"o":"m 260 87 l 260 260 l 87 260 l 87 347 l 260 347 l 260 521 l 347 521 l 347 347 l 521 347 l 521 260 l 347 260 l 347 87 l 260 87 z "},",":{"ha":608,"x_min":87,"x_max":260,"o":"m 87 -174 l 87 -87 l 174 -87 l 174 -174 l 87 -174 m 174 -87 l 174 174 l 260 174 l 260 -87 l 174 -87 z "},"-":{"ha":608,"x_min":87,"x_max":521,"o":"m 87 260 l 87 347 l 521 347 l 521 260 l 87 260 z "},".":{"ha":608,"x_min":174,"x_max":260,"o":"m 174 0 l 174 174 l 260 174 l 260 0 l 174 0 z "},"/":{"ha":608,"x_min":87,"x_max":521,"o":"m 87 -87 l 87 87 l 174 87 l 174 -87 l 87 -87 m 174 87 l 174 260 l 260 260 l 260 87 l 174 87 m 260 260 l 260 434 l 347 434 l 347 260 l 260 260 m 347 434 l 347 608 l 434 608 l 434 434 l 347 434 m 434 608 l 434 781 l 521 781 l 521 608 l 434 608 z "},":":{"ha":608,"x_min":260,"x_max":347,"o":"m 260 0 l 260 174 l 347 174 l 347 0 l 260 0 m 260 347 l 260 521 l 347 521 l 347 347 l 260 347 z "},";":{"ha":608,"x_min":174,"x_max":347,"o":"m 174 -174 l 174 -87 l 260 -87 l 260 -174 l 174 -174 m 260 -87 l 260 174 l 347 174 l 347 -87 l 260 -87 m 260 347 l 260 521 l 347 521 l 347 347 l 260 347 z "},"<":{"ha":608,"x_min":0,"x_max":521,"o":"m 347 87 l 347 174 l 521 174 l 521 87 l 347 87 m 174 174 l 174 260 l 347 260 l 347 174 l 174 174 m 0 260 l 0 347 l 174 347 l 174 260 l 0 260 m 174 347 l 174 434 l 347 434 l 347 347 l 174 347 m 347 434 l 347 521 l 521 521 l 521 434 l 347 434 z "},"=":{"ha":608,"x_min":87,"x_max":608,"o":"m 87 174 l 87 260 l 608 260 l 608 174 l 87 174 m 87 347 l 87 434 l 608 434 l 608 347 l 87 347 z "},">":{"ha":608,"x_min":87,"x_max":608,"o":"m 87 87 l 87 174 l 260 174 l 260 87 l 87 87 m 260 174 l 260 260 l 434 260 l 434 174 l 260 174 m 434 260 l 434 347 l 608 347 l 608 260 l 434 260 m 260 347 l 260 434 l 434 434 l 434 347 l 260 347 m 87 434 l 87 521 l 260 521 l 260 434 l 87 434 z "},"?":{"ha":608,"x_min":87,"x_max":521,"o":"m 260 0 l 260 87 l 347 87 l 347 0 l 260 0 m 260 174 l 260 347 l 347 347 l 347 174 l 260 174 m 347 347 l 347 434 l 434 434 l 434 347 l 347 347 m 87 521 l 87 608 l 174 608 l 174 521 l 87 521 m 434 434 l 434 608 l 521 608 l 521 434 l 434 434 m 174 608 l 174 694 l 434 694 l 434 608 l 174 608 z "},"@":{"ha":608,"x_min":0,"x_max":608,"o":"m 174 0 l 174 87 l 521 87 l 521 0 l 174 0 m 87 87 l 87 174 l 174 174 l 174 87 l 87 87 m 174 260 l 174 434 l 260 434 l 260 260 l 174 260 m 0 174 l 0 521 l 87 521 l 87 174 l 0 174 m 260 174 l 260 260 l 347 260 l 347 434 l 260 434 l 260 521 l 434 521 l 434 260 l 521 260 l 521 174 l 260 174 m 521 260 l 521 521 l 608 521 l 608 260 l 521 260 m 87 521 l 87 608 l 174 608 l 174 521 l 87 521 m 434 521 l 434 608 l 521 608 l 521 521 l 434 521 m 174 608 l 174 694 l 434 694 l 434 608 l 174 608 z "},"A":{"ha":608,"x_min":87,"x_max":608,"o":"m 87 0 l 87 260 l 174 260 l 174 0 l 87 0 m 521 0 l 521 260 l 608 260 l 608 0 l 521 0 m 174 260 l 174 521 l 260 521 l 260 347 l 434 347 l 434 521 l 521 521 l 521 260 l 174 260 m 260 521 l 260 694 l 434 694 l 434 521 l 260 521 z "},"B":{"ha":608,"x_min":87,"x_max":608,"o":"m 521 87 l 521 347 l 608 347 l 608 87 l 521 87 m 87 0 l 87 694 l 434 694 l 434 608 l 174 608 l 174 434 l 434 434 l 434 608 l 521 608 l 521 347 l 174 347 l 174 87 l 521 87 l 521 0 l 87 0 z "},"C":{"ha":608,"x_min":87,"x_max":608,"o":"m 260 0 l 260 87 l 521 87 l 521 0 l 260 0 m 174 87 l 174 174 l 260 174 l 260 87 l 174 87 m 521 87 l 521 174 l 608 174 l 608 87 l 521 87 m 87 174 l 87 521 l 174 521 l 174 174 l 87 174 m 174 521 l 174 608 l 260 608 l 260 521 l 174 521 m 521 521 l 521 608 l 608 608 l 608 521 l 521 521 m 260 608 l 260 694 l 521 694 l 521 608 l 260 608 z "},"D":{"ha":608,"x_min":87,"x_max":608,"o":"m 434 87 l 434 174 l 521 174 l 521 87 l 434 87 m 521 174 l 521 521 l 608 521 l 608 174 l 521 174 m 434 521 l 434 608 l 521 608 l 521 521 l 434 521 m 87 0 l 87 694 l 434 694 l 434 608 l 174 608 l 174 87 l 434 87 l 434 0 l 87 0 z "},"E":{"ha":608,"x_min":87,"x_max":521,"o":"m 87 0 l 87 694 l 521 694 l 521 608 l 174 608 l 174 434 l 434 434 l 434 347 l 174 347 l 174 87 l 521 87 l 521 0 l 87 0 z "},"F":{"ha":608,"x_min":87,"x_max":521,"o":"m 87 0 l 87 694 l 521 694 l 521 608 l 174 608 l 174 434 l 434 434 l 434 347 l 174 347 l 174 0 l 87 0 z "},"G":{"ha":608,"x_min":87,"x_max":608,"o":"m 260 0 l 260 87 l 521 87 l 521 0 l 260 0 m 174 87 l 174 174 l 260 174 l 260 87 l 174 87 m 521 87 l 521 260 l 347 260 l 347 347 l 608 347 l 608 87 l 521 87 m 87 174 l 87 521 l 174 521 l 174 174 l 87 174 m 174 521 l 174 608 l 260 608 l 260 521 l 174 521 m 521 521 l 521 608 l 608 608 l 608 521 l 521 521 m 260 608 l 260 694 l 521 694 l 521 608 l 260 608 z "},"H":{"ha":608,"x_min":87,"x_max":608,"o":"m 87 0 l 87 694 l 174 694 l 174 434 l 521 434 l 521 694 l 608 694 l 608 0 l 521 0 l 521 347 l 174 347 l 174 0 l 87 0 z "},"I":{"ha":608,"x_min":174,"x_max":434,"o":"m 174 0 l 174 87 l 260 87 l 260 608 l 174 608 l 174 694 l 434 694 l 434 608 l 347 608 l 347 87 l 434 87 l 434 0 l 174 0 z "},"J":{"ha":608,"x_min":87,"x_max":434,"o":"m 87 0 l 87 87 l 347 87 l 347 0 l 87 0 m 347 87 l 347 608 l 174 608 l 174 694 l 434 694 l 434 87 l 347 87 z "},"K":{"ha":608,"x_min":87,"x_max":608,"o":"m 521 0 l 521 87 l 608 87 l 608 0 l 521 0 m 434 87 l 434 174 l 521 174 l 521 87 l 434 87 m 347 174 l 347 260 l 434 260 l 434 174 l 347 174 m 347 434 l 347 521 l 434 521 l 434 434 l 347 434 m 434 521 l 434 608 l 521 608 l 521 521 l 434 521 m 87 0 l 87 694 l 174 694 l 174 347 l 260 347 l 260 434 l 347 434 l 347 260 l 174 260 l 174 0 l 87 0 m 521 608 l 521 694 l 608 694 l 608 608 l 521 608 z "},"L":{"ha":608,"x_min":87,"x_max":521,"o":"m 87 0 l 87 694 l 174 694 l 174 87 l 521 87 l 521 0 l 87 0 z "},"M":{"ha":608,"x_min":0,"x_max":608,"o":"m 260 174 l 260 347 l 347 347 l 347 174 l 260 174 m 174 347 l 174 521 l 260 521 l 260 347 l 174 347 m 347 347 l 347 521 l 434 521 l 434 347 l 347 347 m 0 0 l 0 694 l 174 694 l 174 521 l 87 521 l 87 0 l 0 0 m 521 0 l 521 521 l 434 521 l 434 694 l 608 694 l 608 0 l 521 0 z "},"N":{"ha":608,"x_min":87,"x_max":608,"o":"m 347 174 l 347 347 l 434 347 l 434 174 l 347 174 m 260 347 l 260 521 l 347 521 l 347 347 l 260 347 m 87 0 l 87 694 l 260 694 l 260 521 l 174 521 l 174 0 l 87 0 m 434 0 l 434 174 l 521 174 l 521 694 l 608 694 l 608 0 l 434 0 z "},"O":{"ha":608,"x_min":87,"x_max":608,"o":"m 260 0 l 260 87 l 434 87 l 434 0 l 260 0 m 174 87 l 174 174 l 260 174 l 260 87 l 174 87 m 434 87 l 434 174 l 521 174 l 521 87 l 434 87 m 87 174 l 87 521 l 174 521 l 174 174 l 87 174 m 521 174 l 521 521 l 608 521 l 608 174 l 521 174 m 174 521 l 174 608 l 260 608 l 260 521 l 174 521 m 434 521 l 434 608 l 521 608 l 521 521 l 434 521 m 260 608 l 260 694 l 434 694 l 434 608 l 260 608 z "},"P":{"ha":608,"x_min":87,"x_max":521,"o":"m 434 347 l 434 608 l 521 608 l 521 347 l 434 347 m 87 0 l 87 694 l 434 694 l 434 608 l 174 608 l 174 347 l 434 347 l 434 260 l 174 260 l 174 0 l 87 0 z "},"Q":{"ha":608,"x_min":87,"x_max":608,"o":"m 260 0 l 260 87 l 434 87 l 434 0 l 260 0 m 521 -87 l 521 87 l 608 87 l 608 -87 l 521 -87 m 174 87 l 174 174 l 260 174 l 260 87 l 174 87 m 434 87 l 434 174 l 521 174 l 521 87 l 434 87 m 87 174 l 87 521 l 174 521 l 174 174 l 87 174 m 521 174 l 521 521 l 608 521 l 608 174 l 521 174 m 174 521 l 174 608 l 260 608 l 260 521 l 174 521 m 434 521 l 434 608 l 521 608 l 521 521 l 434 521 m 260 608 l 260 694 l 434 694 l 434 608 l 260 608 z "},"R":{"ha":608,"x_min":87,"x_max":608,"o":"m 521 0 l 521 87 l 608 87 l 608 0 l 521 0 m 434 87 l 434 174 l 521 174 l 521 87 l 434 87 m 434 347 l 434 608 l 521 608 l 521 347 l 434 347 m 87 0 l 87 694 l 434 694 l 434 608 l 174 608 l 174 347 l 434 347 l 434 174 l 347 174 l 347 260 l 174 260 l 174 0 l 87 0 z "},"S":{"ha":608,"x_min":87,"x_max":608,"o":"m 174 0 l 174 87 l 521 87 l 521 0 l 174 0 m 87 87 l 87 174 l 174 174 l 174 87 l 87 87 m 521 87 l 521 260 l 608 260 l 608 87 l 521 87 m 347 260 l 347 347 l 521 347 l 521 260 l 347 260 m 174 347 l 174 434 l 347 434 l 347 347 l 174 347 m 87 434 l 87 608 l 174 608 l 174 434 l 87 434 m 521 521 l 521 608 l 608 608 l 608 521 l 521 521 m 174 608 l 174 694 l 521 694 l 521 608 l 174 608 z "},"T":{"ha":608,"x_min":0,"x_max":608,"o":"m 260 0 l 260 608 l 0 608 l 0 694 l 608 694 l 608 608 l 347 608 l 347 0 l 260 0 z "},"U":{"ha":608,"x_min":87,"x_max":608,"o":"m 174 0 l 174 87 l 521 87 l 521 0 l 174 0 m 87 87 l 87 694 l 174 694 l 174 87 l 87 87 m 521 87 l 521 694 l 608 694 l 608 87 l 521 87 z "},"V":{"ha":608,"x_min":0,"x_max":608,"o":"m 260 0 l 260 174 l 347 174 l 347 0 l 260 0 m 174 174 l 174 347 l 260 347 l 260 174 l 174 174 m 347 174 l 347 347 l 434 347 l 434 174 l 347 174 m 87 347 l 87 521 l 174 521 l 174 347 l 87 347 m 434 347 l 434 521 l 521 521 l 521 347 l 434 347 m 0 521 l 0 694 l 87 694 l 87 521 l 0 521 m 521 521 l 521 694 l 608 694 l 608 521 l 521 521 z "},"W":{"ha":608,"x_min":0,"x_max":608,"o":"m 87 0 l 87 260 l 174 260 l 174 434 l 260 434 l 260 174 l 174 174 l 174 0 l 87 0 m 434 0 l 434 174 l 347 174 l 347 434 l 434 434 l 434 260 l 521 260 l 521 0 l 434 0 m 260 434 l 260 608 l 347 608 l 347 434 l 260 434 m 0 260 l 0 694 l 87 694 l 87 260 l 0 260 m 521 260 l 521 694 l 608 694 l 608 260 l 521 260 z "},"X":{"ha":608,"x_min":87,"x_max":608,"o":"m 87 0 l 87 174 l 174 174 l 174 0 l 87 0 m 521 0 l 521 174 l 608 174 l 608 0 l 521 0 m 174 174 l 174 260 l 260 260 l 260 174 l 174 174 m 434 174 l 434 260 l 521 260 l 521 174 l 434 174 m 260 260 l 260 434 l 434 434 l 434 260 l 260 260 m 174 434 l 174 521 l 260 521 l 260 434 l 174 434 m 434 434 l 434 521 l 521 521 l 521 434 l 434 434 m 87 521 l 87 694 l 174 694 l 174 521 l 87 521 m 521 521 l 521 694 l 608 694 l 608 521 l 521 521 z "},"Y":{"ha":608,"x_min":0,"x_max":608,"o":"m 260 0 l 260 347 l 347 347 l 347 0 l 260 0 m 174 347 l 174 434 l 260 434 l 260 347 l 174 347 m 347 347 l 347 434 l 434 434 l 434 347 l 347 347 m 87 434 l 87 521 l 174 521 l 174 434 l 87 434 m 434 434 l 434 521 l 521 521 l 521 434 l 434 434 m 0 521 l 0 694 l 87 694 l 87 521 l 0 521 m 521 521 l 521 694 l 608 694 l 608 521 l 521 521 z "},"Z":{"ha":608,"x_min":87,"x_max":608,"o":"m 87 0 l 87 174 l 174 174 l 174 87 l 608 87 l 608 0 l 87 0 m 174 174 l 174 260 l 260 260 l 260 174 l 174 174 m 260 260 l 260 347 l 347 347 l 347 260 l 260 260 m 347 347 l 347 434 l 434 434 l 434 347 l 347 347 m 434 434 l 434 521 l 521 521 l 521 434 l 434 434 m 521 521 l 521 608 l 87 608 l 87 694 l 608 694 l 608 521 l 521 521 z "},"[":{"ha":608,"x_min":174,"x_max":434,"o":"m 174 -174 l 174 781 l 434 781 l 434 694 l 260 694 l 260 -87 l 434 -87 l 434 -174 l 174 -174 z "},"\\":{"ha":608,"x_min":87,"x_max":521,"o":"m 434 -87 l 434 87 l 521 87 l 521 -87 l 434 -87 m 347 87 l 347 260 l 434 260 l 434 87 l 347 87 m 260 260 l 260 434 l 347 434 l 347 260 l 260 260 m 174 434 l 174 608 l 260 608 l 260 434 l 174 434 m 87 608 l 87 781 l 174 781 l 174 608 l 87 608 z "},"]":{"ha":608,"x_min":174,"x_max":434,"o":"m 174 -174 l 174 -87 l 347 -87 l 347 694 l 174 694 l 174 781 l 434 781 l 434 -174 l 174 -174 z "},"^":{"ha":608,"x_min":87,"x_max":521,"o":"m 87 260 l 87 434 l 174 434 l 174 260 l 87 260 m 434 260 l 434 434 l 521 434 l 521 260 l 434 260 m 174 434 l 174 608 l 260 608 l 260 434 l 174 434 m 347 434 l 347 608 l 434 608 l 434 434 l 347 434 m 260 608 l 260 781 l 347 781 l 347 608 l 260 608 z "},"_":{"ha":608,"x_min":0,"x_max":608,"o":"m 0 -87 l 0 0 l 608 0 l 608 -87 l 0 -87 z "},"`":{"ha":608,"x_min":174,"x_max":347,"o":"m 260 608 l 260 694 l 347 694 l 347 608 l 260 608 m 174 694 l 174 781 l 260 781 l 260 694 l 174 694 z "},"a":{"ha":608,"x_min":87,"x_max":521,"o":"m 87 87 l 87 260 l 174 260 l 174 87 l 87 87 m 174 0 l 174 87 l 434 87 l 434 260 l 174 260 l 174 347 l 434 347 l 434 434 l 521 434 l 521 0 l 174 0 m 174 434 l 174 521 l 434 521 l 434 434 l 174 434 z "},"b":{"ha":608,"x_min":87,"x_max":521,"o":"m 434 87 l 434 434 l 521 434 l 521 87 l 434 87 m 87 0 l 87 781 l 174 781 l 174 521 l 434 521 l 434 434 l 174 434 l 174 87 l 434 87 l 434 0 l 87 0 z "},"c":{"ha":608,"x_min":87,"x_max":521,"o":"m 174 0 l 174 87 l 434 87 l 434 0 l 174 0 m 434 87 l 434 174 l 521 174 l 521 87 l 434 87 m 87 87 l 87 434 l 174 434 l 174 87 l 87 87 m 434 347 l 434 434 l 521 434 l 521 347 l 434 347 m 174 434 l 174 521 l 434 521 l 434 434 l 174 434 z "},"d":{"ha":608,"x_min":87,"x_max":521,"o":"m 87 87 l 87 434 l 174 434 l 174 87 l 87 87 m 174 0 l 174 87 l 434 87 l 434 434 l 174 434 l 174 521 l 434 521 l 434 781 l 521 781 l 521 0 l 174 0 z "},"e":{"ha":608,"x_min":87,"x_max":521,"o":"m 174 0 l 174 87 l 434 87 l 434 0 l 174 0 m 434 87 l 434 174 l 521 174 l 521 87 l 434 87 m 87 87 l 87 434 l 174 434 l 174 347 l 434 347 l 434 434 l 521 434 l 521 260 l 174 260 l 174 87 l 87 87 m 174 434 l 174 521 l 434 521 l 434 434 l 174 434 z "},"f":{"ha":608,"x_min":87,"x_max":521,"o":"m 174 0 l 174 434 l 87 434 l 87 521 l 174 521 l 174 694 l 260 694 l 260 521 l 434 521 l 434 434 l 260 434 l 260 0 l 174 0 m 260 694 l 260 781 l 521 781 l 521 694 l 260 694 z "},"g":{"ha":608,"x_min":87,"x_max":521,"o":"m 174 -260 l 174 -174 l 434 -174 l 434 -260 l 174 -260 m 87 -174 l 87 0 l 174 0 l 174 -174 l 87 -174 m 434 -174 l 434 0 l 521 0 l 521 -174 l 434 -174 m 174 0 l 174 87 l 434 87 l 434 0 l 174 0 m 87 87 l 87 174 l 174 174 l 174 87 l 87 87 m 174 174 l 174 260 l 347 260 l 347 174 l 174 174 m 87 260 l 87 434 l 174 434 l 174 260 l 87 260 m 347 260 l 347 434 l 434 434 l 434 260 l 347 260 m 174 434 l 174 521 l 347 521 l 347 434 l 174 434 m 434 434 l 434 521 l 521 521 l 521 434 l 434 434 z "},"h":{"ha":608,"x_min":87,"x_max":521,"o":"m 434 0 l 434 434 l 521 434 l 521 0 l 434 0 m 87 0 l 87 781 l 174 781 l 174 521 l 434 521 l 434 434 l 174 434 l 174 0 l 87 0 z "},"i":{"ha":608,"x_min":174,"x_max":347,"o":"m 260 0 l 260 434 l 174 434 l 174 521 l 347 521 l 347 0 l 260 0 m 260 694 l 260 781 l 347 781 l 347 694 l 260 694 z "},"j":{"ha":608,"x_min":87,"x_max":434,"o":"m 87 -174 l 87 -87 l 347 -87 l 347 -174 l 87 -174 m 347 -87 l 347 434 l 260 434 l 260 521 l 434 521 l 434 -87 l 347 -87 m 347 694 l 347 781 l 434 781 l 434 694 l 347 694 z "},"k":{"ha":608,"x_min":87,"x_max":521,"o":"m 434 0 l 434 87 l 521 87 l 521 0 l 434 0 m 347 87 l 347 174 l 434 174 l 434 87 l 347 87 m 347 347 l 347 434 l 434 434 l 434 347 l 347 347 m 434 434 l 434 521 l 521 521 l 521 434 l 434 434 m 87 0 l 87 781 l 174 781 l 174 260 l 260 260 l 260 347 l 347 347 l 347 174 l 174 174 l 174 0 l 87 0 z "},"l":{"ha":608,"x_min":174,"x_max":434,"o":"m 347 0 l 347 87 l 434 87 l 434 0 l 347 0 m 260 87 l 260 694 l 174 694 l 174 781 l 347 781 l 347 87 l 260 87 z "},"m":{"ha":608,"x_min":87,"x_max":521,"o":"m 260 0 l 260 434 l 347 434 l 347 0 l 260 0 m 434 0 l 434 434 l 521 434 l 521 0 l 434 0 m 87 0 l 87 521 l 260 521 l 260 434 l 174 434 l 174 0 l 87 0 m 347 434 l 347 521 l 434 521 l 434 434 l 347 434 z "},"n":{"ha":608,"x_min":87,"x_max":521,"o":"m 434 0 l 434 434 l 521 434 l 521 0 l 434 0 m 87 0 l 87 521 l 434 521 l 434 434 l 174 434 l 174 0 l 87 0 z "},"o":{"ha":608,"x_min":87,"x_max":521,"o":"m 174 0 l 174 87 l 434 87 l 434 0 l 174 0 m 87 87 l 87 434 l 174 434 l 174 87 l 87 87 m 434 87 l 434 434 l 521 434 l 521 87 l 434 87 m 174 434 l 174 521 l 434 521 l 434 434 l 174 434 z "},"p":{"ha":608,"x_min":87,"x_max":521,"o":"m 434 87 l 434 434 l 521 434 l 521 87 l 434 87 m 87 -260 l 87 521 l 434 521 l 434 434 l 174 434 l 174 87 l 434 87 l 434 0 l 174 0 l 174 -260 l 87 -260 z "},"q":{"ha":608,"x_min":87,"x_max":521,"o":"m 87 87 l 87 434 l 174 434 l 174 87 l 87 87 m 434 -260 l 434 0 l 174 0 l 174 87 l 434 87 l 434 434 l 174 434 l 174 521 l 521 521 l 521 -260 l 434 -260 z "},"r":{"ha":608,"x_min":87,"x_max":521,"o":"m 434 347 l 434 434 l 521 434 l 521 347 l 434 347 m 87 0 l 87 521 l 174 521 l 174 434 l 260 434 l 260 347 l 174 347 l 174 0 l 87 0 m 260 434 l 260 521 l 434 521 l 434 434 l 260 434 z "},"s":{"ha":608,"x_min":87,"x_max":521,"o":"m 87 0 l 87 87 l 434 87 l 434 0 l 87 0 m 434 87 l 434 174 l 521 174 l 521 87 l 434 87 m 347 174 l 347 260 l 434 260 l 434 174 l 347 174 m 174 260 l 174 347 l 347 347 l 347 260 l 174 260 m 87 347 l 87 434 l 174 434 l 174 347 l 87 347 m 174 434 l 174 521 l 521 521 l 521 434 l 174 434 z "},"t":{"ha":608,"x_min":174,"x_max":521,"o":"m 260 0 l 260 87 l 521 87 l 521 0 l 260 0 m 174 87 l 174 694 l 260 694 l 260 521 l 521 521 l 521 434 l 260 434 l 260 87 l 174 87 z "},"u":{"ha":608,"x_min":87,"x_max":521,"o":"m 87 87 l 87 521 l 174 521 l 174 87 l 87 87 m 174 0 l 174 87 l 434 87 l 434 521 l 521 521 l 521 0 l 174 0 z "},"v":{"ha":608,"x_min":87,"x_max":521,"o":"m 260 0 l 260 174 l 347 174 l 347 0 l 260 0 m 174 174 l 174 347 l 260 347 l 260 174 l 174 174 m 347 174 l 347 347 l 434 347 l 434 174 l 347 174 m 87 347 l 87 521 l 174 521 l 174 347 l 87 347 m 434 347 l 434 521 l 521 521 l 521 347 l 434 347 z "},"w":{"ha":608,"x_min":0,"x_max":608,"o":"m 87 0 l 87 174 l 174 174 l 174 260 l 260 260 l 260 87 l 174 87 l 174 0 l 87 0 m 434 0 l 434 87 l 347 87 l 347 260 l 434 260 l 434 174 l 521 174 l 521 0 l 434 0 m 260 260 l 260 434 l 347 434 l 347 260 l 260 260 m 0 174 l 0 521 l 87 521 l 87 174 l 0 174 m 521 174 l 521 521 l 608 521 l 608 174 l 521 174 z "},"x":{"ha":608,"x_min":87,"x_max":521,"o":"m 87 0 l 87 87 l 174 87 l 174 0 l 87 0 m 434 0 l 434 87 l 521 87 l 521 0 l 434 0 m 174 87 l 174 174 l 260 174 l 260 87 l 174 87 m 347 87 l 347 174 l 434 174 l 434 87 l 347 87 m 260 174 l 260 347 l 347 347 l 347 174 l 260 174 m 174 347 l 174 434 l 260 434 l 260 347 l 174 347 m 347 347 l 347 434 l 434 434 l 434 347 l 347 347 m 87 434 l 87 521 l 174 521 l 174 434 l 87 434 m 434 434 l 434 521 l 521 521 l 521 434 l 434 434 z "},"y":{"ha":608,"x_min":87,"x_max":521,"o":"m 174 -260 l 174 -174 l 260 -174 l 260 -260 l 174 -260 m 260 -174 l 260 87 l 347 87 l 347 -174 l 260 -174 m 174 87 l 174 347 l 260 347 l 260 87 l 174 87 m 347 87 l 347 347 l 434 347 l 434 87 l 347 87 m 87 347 l 87 521 l 174 521 l 174 347 l 87 347 m 434 347 l 434 521 l 521 521 l 521 347 l 434 347 z "},"z":{"ha":608,"x_min":87,"x_max":521,"o":"m 87 0 l 87 87 l 174 87 l 174 174 l 260 174 l 260 87 l 521 87 l 521 0 l 87 0 m 260 174 l 260 260 l 347 260 l 347 174 l 260 174 m 347 260 l 347 347 l 434 347 l 434 260 l 347 260 m 434 347 l 434 434 l 87 434 l 87 521 l 521 521 l 521 347 l 434 347 z "},"{":{"ha":608,"x_min":87,"x_max":521,"o":"m 347 -174 l 347 -87 l 521 -87 l 521 -174 l 347 -174 m 260 -87 l 260 260 l 347 260 l 347 -87 l 260 -87 m 87 260 l 87 347 l 260 347 l 260 260 l 87 260 m 260 347 l 260 694 l 347 694 l 347 347 l 260 347 m 347 694 l 347 781 l 521 781 l 521 694 l 347 694 z "},"|":{"ha":608,"x_min":260,"x_max":347,"o":"m 260 -174 l 260 781 l 347 781 l 347 -174 l 260 -174 z "},"}":{"ha":608,"x_min":87,"x_max":521,"o":"m 87 -174 l 87 -87 l 260 -87 l 260 -174 l 87 -174 m 260 -87 l 260 260 l 347 260 l 347 -87 l 260 -87 m 347 260 l 347 347 l 521 347 l 521 260 l 347 260 m 260 347 l 260 694 l 347 694 l 347 347 l 260 347 m 87 694 l 87 781 l 260 781 l 260 694 l 87 694 z "},"~":{"ha":608,"x_min":0,"x_max":608,"o":"m 0 260 l 0 347 l 87 347 l 87 260 l 0 260 m 260 260 l 260 347 l 87 347 l 87 434 l 347 434 l 347 347 l 521 347 l 521 260 l 260 260 m 521 347 l 521 434 l 608 434 l 608 347 l 521 347 z "},"":{"ha":608,"x_min":0,"x_max":608,"o":"m 521 -174 l 521 781 l 87 781 l 87 -174 l 521 -174 m 0 -260 l 0 868 l 608 868 l 608 -260 l 0 -260 z "}," ":{"ha":608,"x_min":0,"x_max":0,"o":""},"¡":{"ha":608,"x_min":260,"x_max":347,"o":"m 260 0 l 260 521 l 347 521 l 347 0 l 260 0 m 260 608 l 260 694 l 347 694 l 347 608 l 260 608 z "},"¢":{"ha":608,"x_min":87,"x_max":521,"o":"m 434 87 l 434 174 l 521 174 l 521 87 l 434 87 m 87 87 l 87 434 l 174 434 l 174 87 l 87 87 m 434 347 l 434 434 l 521 434 l 521 347 l 434 347 m 260 -87 l 260 0 l 174 0 l 174 87 l 260 87 l 260 434 l 174 434 l 174 521 l 260 521 l 260 608 l 347 608 l 347 521 l 434 521 l 434 434 l 347 434 l 347 87 l 434 87 l 434 0 l 347 0 l 347 -87 l 260 -87 z "},"£":{"ha":608,"x_min":87,"x_max":521,"o":"m 87 0 l 87 174 l 174 174 l 174 87 l 521 87 l 521 0 l 87 0 m 174 174 l 174 347 l 87 347 l 87 434 l 174 434 l 174 608 l 260 608 l 260 434 l 434 434 l 434 347 l 260 347 l 260 174 l 174 174 m 260 608 l 260 694 l 434 694 l 434 608 l 260 608 z "},"¤":{"ha":608,"x_min":0,"x_max":608,"o":"m 0 0 l 0 87 l 87 87 l 87 0 l 0 0 m 521 0 l 521 87 l 608 87 l 608 0 l 521 0 m 434 174 l 434 434 l 174 434 l 174 174 l 434 174 m 87 87 l 87 521 l 521 521 l 521 87 l 87 87 m 0 521 l 0 608 l 87 608 l 87 521 l 0 521 m 521 521 l 521 608 l 608 608 l 608 521 l 521 521 z "},"¥":{"ha":608,"x_min":0,"x_max":608,"o":"m 260 0 l 260 174 l 87 174 l 87 260 l 260 260 l 260 347 l 347 347 l 347 260 l 521 260 l 521 174 l 347 174 l 347 0 l 260 0 m 174 347 l 174 434 l 260 434 l 260 347 l 174 347 m 347 347 l 347 434 l 434 434 l 434 347 l 347 347 m 87 434 l 87 521 l 174 521 l 174 434 l 87 434 m 434 434 l 434 521 l 521 521 l 521 434 l 434 434 m 0 521 l 0 694 l 87 694 l 87 521 l 0 521 m 521 521 l 521 694 l 608 694 l 608 521 l 521 521 z "},"¦":{"ha":608,"x_min":260,"x_max":347,"o":"m 260 -174 l 260 260 l 347 260 l 347 -174 l 260 -174 m 260 347 l 260 781 l 347 781 l 347 347 l 260 347 z "},"§":{"ha":608,"x_min":87,"x_max":521,"o":"m 174 0 l 174 87 l 434 87 l 434 0 l 174 0 m 87 87 l 87 174 l 174 174 l 174 87 l 87 87 m 434 87 l 434 260 l 521 260 l 521 87 l 434 87 m 260 260 l 260 347 l 347 347 l 347 434 l 434 434 l 434 260 l 260 260 m 174 347 l 174 521 l 347 521 l 347 434 l 260 434 l 260 347 l 174 347 m 87 521 l 87 694 l 174 694 l 174 521 l 87 521 m 434 608 l 434 694 l 521 694 l 521 608 l 434 608 m 174 694 l 174 781 l 434 781 l 434 694 l 174 694 z "},"¨":{"ha":608,"x_min":174,"x_max":434,"o":"m 174 694 l 174 781 l 260 781 l 260 694 l 174 694 m 347 694 l 347 781 l 434 781 l 434 694 l 347 694 z "},"©":{"ha":608,"x_min":0,"x_max":608,"o":"m 87 0 l 87 87 l 521 87 l 521 0 l 87 0 m 260 174 l 260 260 l 434 260 l 434 174 l 260 174 m 174 260 l 174 434 l 260 434 l 260 260 l 174 260 m 260 434 l 260 521 l 434 521 l 434 434 l 260 434 m 0 87 l 0 608 l 87 608 l 87 87 l 0 87 m 521 87 l 521 608 l 608 608 l 608 87 l 521 87 m 87 608 l 87 694 l 521 694 l 521 608 l 87 608 z "},"ª":{"ha":608,"x_min":87,"x_max":434,"o":"m 87 347 l 87 434 l 174 434 l 174 347 l 87 347 m 174 260 l 174 347 l 347 347 l 347 434 l 174 434 l 174 521 l 347 521 l 347 608 l 434 608 l 434 260 l 174 260 m 174 608 l 174 694 l 347 694 l 347 608 l 174 608 z "},"«":{"ha":608,"x_min":87,"x_max":521,"o":"m 260 87 l 260 174 l 347 174 l 347 87 l 260 87 m 434 87 l 434 174 l 521 174 l 521 87 l 434 87 m 174 174 l 174 260 l 260 260 l 260 174 l 174 174 m 347 174 l 347 260 l 434 260 l 434 174 l 347 174 m 87 260 l 87 347 l 174 347 l 174 260 l 87 260 m 260 260 l 260 347 l 347 347 l 347 260 l 260 260 m 174 347 l 174 434 l 260 434 l 260 347 l 174 347 m 347 347 l 347 434 l 434 434 l 434 347 l 347 347 m 260 434 l 260 521 l 347 521 l 347 434 l 260 434 m 434 434 l 434 521 l 521 521 l 521 434 l 434 434 z "},"¬":{"ha":608,"x_min":87,"x_max":434,"o":"m 347 87 l 347 260 l 87 260 l 87 347 l 434 347 l 434 87 l 347 87 z "},"­":{"ha":608,"x_min":174,"x_max":434,"o":"m 174 174 l 174 260 l 434 260 l 434 174 l 174 174 z "},"®":{"ha":608,"x_min":0,"x_max":608,"o":"m 87 0 l 87 87 l 521 87 l 521 0 l 87 0 m 347 174 l 347 260 l 434 260 l 434 174 l 347 174 m 347 347 l 347 434 l 434 434 l 434 347 l 347 347 m 174 174 l 174 521 l 347 521 l 347 434 l 260 434 l 260 347 l 347 347 l 347 260 l 260 260 l 260 174 l 174 174 m 0 87 l 0 608 l 87 608 l 87 87 l 0 87 m 521 87 l 521 608 l 608 608 l 608 87 l 521 87 m 87 608 l 87 694 l 521 694 l 521 608 l 87 608 z "},"¯":{"ha":608,"x_min":0,"x_max":608,"o":"m 0 781 l 0 868 l 608 868 l 608 781 l 0 781 z "},"°":{"ha":608,"x_min":87,"x_max":434,"o":"m 174 434 l 174 521 l 347 521 l 347 434 l 174 434 m 87 521 l 87 694 l 174 694 l 174 521 l 87 521 m 347 521 l 347 694 l 434 694 l 434 521 l 347 521 m 174 694 l 174 781 l 347 781 l 347 694 l 174 694 z "},"±":{"ha":608,"x_min":87,"x_max":521,"o":"m 87 0 l 87 87 l 521 87 l 521 0 l 87 0 m 260 174 l 260 347 l 87 347 l 87 434 l 260 434 l 260 608 l 347 608 l 347 434 l 521 434 l 521 347 l 347 347 l 347 174 l 260 174 z "},"²":{"ha":608,"x_min":87,"x_max":434,"o":"m 87 347 l 87 434 l 174 434 l 174 521 l 260 521 l 260 434 l 434 434 l 434 347 l 87 347 m 260 521 l 260 608 l 347 608 l 347 521 l 260 521 m 347 608 l 347 694 l 434 694 l 434 608 l 347 608 m 87 694 l 87 781 l 347 781 l 347 694 l 87 694 z "},"³":{"ha":608,"x_min":87,"x_max":434,"o":"m 87 347 l 87 434 l 347 434 l 347 347 l 87 347 m 347 434 l 347 521 l 434 521 l 434 434 l 347 434 m 174 521 l 174 608 l 347 608 l 347 521 l 174 521 m 347 608 l 347 694 l 434 694 l 434 608 l 347 608 m 87 694 l 87 781 l 347 781 l 347 694 l 87 694 z "},"´":{"ha":608,"x_min":260,"x_max":434,"o":"m 260 608 l 260 694 l 347 694 l 347 608 l 260 608 m 347 694 l 347 781 l 434 781 l 434 694 l 347 694 z "},"µ":{"ha":608,"x_min":0,"x_max":608,"o":"m 0 -174 l 0 -87 l 87 -87 l 87 -174 l 0 -174 m 260 0 l 260 87 l 434 87 l 434 0 l 260 0 m 521 0 l 521 87 l 608 87 l 608 0 l 521 0 m 87 -87 l 87 521 l 174 521 l 174 174 l 260 174 l 260 87 l 174 87 l 174 -87 l 87 -87 m 434 87 l 434 521 l 521 521 l 521 87 l 434 87 z "},"¶":{"ha":608,"x_min":87,"x_max":608,"o":"m 260 -87 l 260 347 l 174 347 l 174 434 l 87 434 l 87 608 l 174 608 l 174 694 l 608 694 l 608 608 l 521 608 l 521 -87 l 434 -87 l 434 608 l 347 608 l 347 -87 l 260 -87 z "},"·":{"ha":608,"x_min":174,"x_max":434,"o":"m 174 174 l 174 434 l 434 434 l 434 174 l 174 174 z "},"¸":{"ha":608,"x_min":260,"x_max":521,"o":"m 260 -434 l 260 -347 l 434 -347 l 434 -434 l 260 -434 m 434 -347 l 434 -174 l 260 -174 l 260 0 l 347 0 l 347 -87 l 521 -87 l 521 -347 l 434 -347 z "},"¹":{"ha":608,"x_min":87,"x_max":347,"o":"m 87 347 l 87 434 l 174 434 l 174 608 l 87 608 l 87 694 l 174 694 l 174 781 l 260 781 l 260 434 l 347 434 l 347 347 l 87 347 z "},"º":{"ha":608,"x_min":87,"x_max":434,"o":"m 174 347 l 174 434 l 347 434 l 347 347 l 174 347 m 87 434 l 87 694 l 174 694 l 174 434 l 87 434 m 347 434 l 347 694 l 434 694 l 434 434 l 347 434 m 174 694 l 174 781 l 347 781 l 347 694 l 174 694 z "},"»":{"ha":608,"x_min":87,"x_max":521,"o":"m 87 87 l 87 174 l 174 174 l 174 87 l 87 87 m 260 87 l 260 174 l 347 174 l 347 87 l 260 87 m 174 174 l 174 260 l 260 260 l 260 174 l 174 174 m 347 174 l 347 260 l 434 260 l 434 174 l 347 174 m 260 260 l 260 347 l 347 347 l 347 260 l 260 260 m 434 260 l 434 347 l 521 347 l 521 260 l 434 260 m 174 347 l 174 434 l 260 434 l 260 347 l 174 347 m 347 347 l 347 434 l 434 434 l 434 347 l 347 347 m 87 434 l 87 521 l 174 521 l 174 434 l 87 434 m 260 434 l 260 521 l 347 521 l 347 434 l 260 434 z "},"¼":{"ha":608,"x_min":87,"x_max":608,"o":"m 87 0 l 87 174 l 174 174 l 174 0 l 87 0 m 174 174 l 174 347 l 260 347 l 260 174 l 174 174 m 434 0 l 434 87 l 260 87 l 260 174 l 347 174 l 347 260 l 434 260 l 434 347 l 521 347 l 521 174 l 608 174 l 608 87 l 521 87 l 521 0 l 434 0 m 260 347 l 260 521 l 347 521 l 347 347 l 260 347 m 347 521 l 347 694 l 434 694 l 434 521 l 347 521 m 87 434 l 87 781 l 174 781 l 174 434 l 87 434 m 434 694 l 434 868 l 521 868 l 521 694 l 434 694 z "},"½":{"ha":608,"x_min":87,"x_max":608,"o":"m 87 0 l 87 174 l 174 174 l 174 0 l 87 0 m 347 0 l 347 174 l 434 174 l 434 87 l 608 87 l 608 0 l 347 0 m 434 174 l 434 260 l 521 260 l 521 174 l 434 174 m 174 174 l 174 347 l 260 347 l 260 174 l 174 174 m 521 260 l 521 347 l 608 347 l 608 260 l 521 260 m 260 347 l 260 521 l 347 521 l 347 434 l 521 434 l 521 347 l 260 347 m 347 521 l 347 694 l 434 694 l 434 521 l 347 521 m 87 434 l 87 781 l 174 781 l 174 434 l 87 434 m 434 694 l 434 868 l 521 868 l 521 694 l 434 694 z "},"¾":{"ha":608,"x_min":0,"x_max":608,"o":"m 87 0 l 87 174 l 174 174 l 174 0 l 87 0 m 174 174 l 174 347 l 260 347 l 260 174 l 174 174 m 434 0 l 434 87 l 260 87 l 260 174 l 347 174 l 347 260 l 434 260 l 434 347 l 521 347 l 521 174 l 608 174 l 608 87 l 521 87 l 521 0 l 434 0 m 0 347 l 0 434 l 174 434 l 174 347 l 0 347 m 260 347 l 260 434 l 174 434 l 174 521 l 87 521 l 87 608 l 174 608 l 174 694 l 260 694 l 260 521 l 347 521 l 347 347 l 260 347 m 347 521 l 347 694 l 434 694 l 434 521 l 347 521 m 0 694 l 0 781 l 174 781 l 174 694 l 0 694 m 434 694 l 434 868 l 521 868 l 521 694 l 434 694 z "},"¿":{"ha":608,"x_min":87,"x_max":521,"o":"m 174 0 l 174 87 l 434 87 l 434 0 l 174 0 m 434 87 l 434 174 l 521 174 l 521 87 l 434 87 m 87 87 l 87 260 l 174 260 l 174 87 l 87 87 m 174 260 l 174 347 l 260 347 l 260 260 l 174 260 m 260 347 l 260 521 l 347 521 l 347 347 l 260 347 m 260 608 l 260 694 l 347 694 l 347 608 l 260 608 z "},"À":{"ha":608,"x_min":87,"x_max":608,"o":"m 87 0 l 87 260 l 174 260 l 174 0 l 87 0 m 521 0 l 521 260 l 608 260 l 608 0 l 521 0 m 174 260 l 174 521 l 260 521 l 260 347 l 434 347 l 434 521 l 521 521 l 521 260 l 174 260 m 260 521 l 260 694 l 434 694 l 434 521 l 260 521 m 347 781 l 347 868 l 434 868 l 434 781 l 347 781 m 260 868 l 260 955 l 347 955 l 347 868 l 260 868 z "},"Á":{"ha":608,"x_min":87,"x_max":608,"o":"m 87 0 l 87 260 l 174 260 l 174 0 l 87 0 m 521 0 l 521 260 l 608 260 l 608 0 l 521 0 m 174 260 l 174 521 l 260 521 l 260 347 l 434 347 l 434 521 l 521 521 l 521 260 l 174 260 m 260 521 l 260 694 l 434 694 l 434 521 l 260 521 m 260 781 l 260 868 l 347 868 l 347 781 l 260 781 m 347 868 l 347 955 l 434 955 l 434 868 l 347 868 z "},"Â":{"ha":608,"x_min":87,"x_max":608,"o":"m 87 0 l 87 260 l 174 260 l 174 0 l 87 0 m 521 0 l 521 260 l 608 260 l 608 0 l 521 0 m 174 260 l 174 521 l 260 521 l 260 347 l 434 347 l 434 521 l 521 521 l 521 260 l 174 260 m 260 521 l 260 694 l 434 694 l 434 521 l 260 521 m 174 781 l 174 868 l 260 868 l 260 781 l 174 781 m 434 781 l 434 868 l 521 868 l 521 781 l 434 781 m 260 868 l 260 955 l 434 955 l 434 868 l 260 868 z "},"Ã":{"ha":608,"x_min":87,"x_max":608,"o":"m 87 0 l 87 260 l 174 260 l 174 0 l 87 0 m 521 0 l 521 260 l 608 260 l 608 0 l 521 0 m 174 260 l 174 521 l 260 521 l 260 347 l 434 347 l 434 521 l 521 521 l 521 260 l 174 260 m 260 521 l 260 694 l 434 694 l 434 521 l 260 521 m 174 781 l 174 868 l 260 868 l 260 781 l 174 781 m 347 781 l 347 868 l 434 868 l 434 781 l 347 781 m 260 868 l 260 955 l 347 955 l 347 868 l 260 868 m 434 868 l 434 955 l 521 955 l 521 868 l 434 868 z "},"Ä":{"ha":608,"x_min":87,"x_max":608,"o":"m 87 0 l 87 260 l 174 260 l 174 0 l 87 0 m 521 0 l 521 260 l 608 260 l 608 0 l 521 0 m 174 260 l 174 521 l 260 521 l 260 347 l 434 347 l 434 521 l 521 521 l 521 260 l 174 260 m 260 521 l 260 694 l 434 694 l 434 521 l 260 521 m 174 781 l 174 868 l 260 868 l 260 781 l 174 781 m 434 781 l 434 868 l 521 868 l 521 781 l 434 781 z "},"Å":{"ha":608,"x_min":87,"x_max":608,"o":"m 87 0 l 87 260 l 174 260 l 174 0 l 87 0 m 521 0 l 521 260 l 608 260 l 608 0 l 521 0 m 174 260 l 174 521 l 260 521 l 260 347 l 434 347 l 434 521 l 521 521 l 521 260 l 174 260 m 260 521 l 260 694 l 434 694 l 434 521 l 260 521 m 174 694 l 174 868 l 260 868 l 260 694 l 174 694 m 434 694 l 434 868 l 521 868 l 521 694 l 434 694 m 260 868 l 260 955 l 434 955 l 434 868 l 260 868 z "},"Æ":{"ha":608,"x_min":0,"x_max":608,"o":"m 0 0 l 0 260 l 87 260 l 87 0 l 0 0 m 174 434 l 174 608 l 260 608 l 260 434 l 174 434 m 347 0 l 347 260 l 87 260 l 87 434 l 174 434 l 174 347 l 347 347 l 347 608 l 260 608 l 260 694 l 608 694 l 608 608 l 434 608 l 434 434 l 521 434 l 521 347 l 434 347 l 434 87 l 608 87 l 608 0 l 347 0 z "},"Ç":{"ha":608,"x_min":87,"x_max":608,"o":"m 260 -260 l 260 -174 l 347 -174 l 347 -260 l 260 -260 m 347 -174 l 347 0 l 260 0 l 260 87 l 521 87 l 521 0 l 434 0 l 434 -174 l 347 -174 m 174 87 l 174 174 l 260 174 l 260 87 l 174 87 m 521 87 l 521 174 l 608 174 l 608 87 l 521 87 m 87 174 l 87 521 l 174 521 l 174 174 l 87 174 m 174 521 l 174 608 l 260 608 l 260 521 l 174 521 m 521 521 l 521 608 l 608 608 l 608 521 l 521 521 m 260 608 l 260 694 l 521 694 l 521 608 l 260 608 z "},"È":{"ha":608,"x_min":87,"x_max":521,"o":"m 87 0 l 87 694 l 521 694 l 521 608 l 174 608 l 174 434 l 434 434 l 434 347 l 174 347 l 174 87 l 521 87 l 521 0 l 87 0 m 260 781 l 260 868 l 347 868 l 347 781 l 260 781 m 174 868 l 174 955 l 260 955 l 260 868 l 174 868 z "},"É":{"ha":608,"x_min":87,"x_max":521,"o":"m 87 0 l 87 694 l 521 694 l 521 608 l 174 608 l 174 434 l 434 434 l 434 347 l 174 347 l 174 87 l 521 87 l 521 0 l 87 0 m 260 781 l 260 868 l 347 868 l 347 781 l 260 781 m 347 868 l 347 955 l 434 955 l 434 868 l 347 868 z "},"Ê":{"ha":608,"x_min":87,"x_max":521,"o":"m 87 0 l 87 694 l 521 694 l 521 608 l 174 608 l 174 434 l 434 434 l 434 347 l 174 347 l 174 87 l 521 87 l 521 0 l 87 0 m 174 781 l 174 868 l 260 868 l 260 781 l 174 781 m 347 781 l 347 868 l 434 868 l 434 781 l 347 781 m 260 868 l 260 955 l 347 955 l 347 868 l 260 868 z "},"Ë":{"ha":608,"x_min":87,"x_max":521,"o":"m 87 0 l 87 694 l 521 694 l 521 608 l 174 608 l 174 434 l 434 434 l 434 347 l 174 347 l 174 87 l 521 87 l 521 0 l 87 0 m 174 781 l 174 868 l 260 868 l 260 781 l 174 781 m 347 781 l 347 868 l 434 868 l 434 781 l 347 781 z "},"Ì":{"ha":608,"x_min":174,"x_max":434,"o":"m 174 0 l 174 87 l 260 87 l 260 608 l 174 608 l 174 694 l 434 694 l 434 608 l 347 608 l 347 87 l 434 87 l 434 0 l 174 0 m 260 781 l 260 868 l 347 868 l 347 781 l 260 781 m 174 868 l 174 955 l 260 955 l 260 868 l 174 868 z "},"Í":{"ha":608,"x_min":174,"x_max":434,"o":"m 174 0 l 174 87 l 260 87 l 260 608 l 174 608 l 174 694 l 434 694 l 434 608 l 347 608 l 347 87 l 434 87 l 434 0 l 174 0 m 260 781 l 260 868 l 347 868 l 347 781 l 260 781 m 347 868 l 347 955 l 434 955 l 434 868 l 347 868 z "},"Î":{"ha":608,"x_min":174,"x_max":434,"o":"m 174 0 l 174 87 l 260 87 l 260 608 l 174 608 l 174 694 l 434 694 l 434 608 l 347 608 l 347 87 l 434 87 l 434 0 l 174 0 m 174 781 l 174 868 l 260 868 l 260 781 l 174 781 m 347 781 l 347 868 l 434 868 l 434 781 l 347 781 m 260 868 l 260 955 l 347 955 l 347 868 l 260 868 z "},"Ï":{"ha":608,"x_min":174,"x_max":434,"o":"m 174 0 l 174 87 l 260 87 l 260 608 l 174 608 l 174 694 l 434 694 l 434 608 l 347 608 l 347 87 l 434 87 l 434 0 l 174 0 m 174 781 l 174 868 l 260 868 l 260 781 l 174 781 m 347 781 l 347 868 l 434 868 l 434 781 l 347 781 z "},"Ð":{"ha":608,"x_min":0,"x_max":608,"o":"m 434 87 l 434 174 l 521 174 l 521 87 l 434 87 m 521 174 l 521 521 l 608 521 l 608 174 l 521 174 m 434 521 l 434 608 l 521 608 l 521 521 l 434 521 m 87 0 l 87 347 l 0 347 l 0 434 l 87 434 l 87 694 l 434 694 l 434 608 l 174 608 l 174 434 l 347 434 l 347 347 l 174 347 l 174 87 l 434 87 l 434 0 l 87 0 z "},"Ñ":{"ha":608,"x_min":87,"x_max":608,"o":"m 347 174 l 347 347 l 434 347 l 434 174 l 347 174 m 260 347 l 260 521 l 347 521 l 347 347 l 260 347 m 87 0 l 87 694 l 260 694 l 260 521 l 174 521 l 174 0 l 87 0 m 434 0 l 434 174 l 521 174 l 521 694 l 608 694 l 608 0 l 434 0 m 174 781 l 174 868 l 260 868 l 260 781 l 174 781 m 347 781 l 347 868 l 434 868 l 434 781 l 347 781 m 260 868 l 260 955 l 347 955 l 347 868 l 260 868 m 434 868 l 434 955 l 521 955 l 521 868 l 434 868 z "},"Ò":{"ha":608,"x_min":87,"x_max":608,"o":"m 260 0 l 260 87 l 434 87 l 434 0 l 260 0 m 174 87 l 174 174 l 260 174 l 260 87 l 174 87 m 434 87 l 434 174 l 521 174 l 521 87 l 434 87 m 87 174 l 87 521 l 174 521 l 174 174 l 87 174 m 521 174 l 521 521 l 608 521 l 608 174 l 521 174 m 174 521 l 174 608 l 260 608 l 260 521 l 174 521 m 434 521 l 434 608 l 521 608 l 521 521 l 434 521 m 260 608 l 260 694 l 434 694 l 434 608 l 260 608 m 347 781 l 347 868 l 434 868 l 434 781 l 347 781 m 260 868 l 260 955 l 347 955 l 347 868 l 260 868 z "},"Ó":{"ha":608,"x_min":87,"x_max":608,"o":"m 260 0 l 260 87 l 434 87 l 434 0 l 260 0 m 174 87 l 174 174 l 260 174 l 260 87 l 174 87 m 434 87 l 434 174 l 521 174 l 521 87 l 434 87 m 87 174 l 87 521 l 174 521 l 174 174 l 87 174 m 521 174 l 521 521 l 608 521 l 608 174 l 521 174 m 174 521 l 174 608 l 260 608 l 260 521 l 174 521 m 434 521 l 434 608 l 521 608 l 521 521 l 434 521 m 260 608 l 260 694 l 434 694 l 434 608 l 260 608 m 260 781 l 260 868 l 347 868 l 347 781 l 260 781 m 347 868 l 347 955 l 434 955 l 434 868 l 347 868 z "},"Ô":{"ha":608,"x_min":87,"x_max":608,"o":"m 260 0 l 260 87 l 434 87 l 434 0 l 260 0 m 174 87 l 174 174 l 260 174 l 260 87 l 174 87 m 434 87 l 434 174 l 521 174 l 521 87 l 434 87 m 87 174 l 87 521 l 174 521 l 174 174 l 87 174 m 521 174 l 521 521 l 608 521 l 608 174 l 521 174 m 174 521 l 174 608 l 260 608 l 260 521 l 174 521 m 434 521 l 434 608 l 521 608 l 521 521 l 434 521 m 260 608 l 260 694 l 434 694 l 434 608 l 260 608 m 174 781 l 174 868 l 260 868 l 260 781 l 174 781 m 434 781 l 434 868 l 521 868 l 521 781 l 434 781 m 260 868 l 260 955 l 434 955 l 434 868 l 260 868 z "},"Õ":{"ha":608,"x_min":87,"x_max":608,"o":"m 260 0 l 260 87 l 434 87 l 434 0 l 260 0 m 174 87 l 174 174 l 260 174 l 260 87 l 174 87 m 434 87 l 434 174 l 521 174 l 521 87 l 434 87 m 87 174 l 87 521 l 174 521 l 174 174 l 87 174 m 521 174 l 521 521 l 608 521 l 608 174 l 521 174 m 174 521 l 174 608 l 260 608 l 260 521 l 174 521 m 434 521 l 434 608 l 521 608 l 521 521 l 434 521 m 260 608 l 260 694 l 434 694 l 434 608 l 260 608 m 174 781 l 174 868 l 260 868 l 260 781 l 174 781 m 347 781 l 347 868 l 434 868 l 434 781 l 347 781 m 260 868 l 260 955 l 347 955 l 347 868 l 260 868 m 434 868 l 434 955 l 521 955 l 521 868 l 434 868 z "},"Ö":{"ha":608,"x_min":87,"x_max":608,"o":"m 260 0 l 260 87 l 434 87 l 434 0 l 260 0 m 174 87 l 174 174 l 260 174 l 260 87 l 174 87 m 434 87 l 434 174 l 521 174 l 521 87 l 434 87 m 87 174 l 87 521 l 174 521 l 174 174 l 87 174 m 521 174 l 521 521 l 608 521 l 608 174 l 521 174 m 174 521 l 174 608 l 260 608 l 260 521 l 174 521 m 434 521 l 434 608 l 521 608 l 521 521 l 434 521 m 260 608 l 260 694 l 434 694 l 434 608 l 260 608 m 174 781 l 174 868 l 260 868 l 260 781 l 174 781 m 434 781 l 434 868 l 521 868 l 521 781 l 434 781 z "},"×":{"ha":608,"x_min":87,"x_max":521,"o":"m 87 87 l 87 174 l 174 174 l 174 87 l 87 87 m 434 87 l 434 174 l 521 174 l 521 87 l 434 87 m 174 174 l 174 260 l 260 260 l 260 174 l 174 174 m 347 174 l 347 260 l 434 260 l 434 174 l 347 174 m 260 260 l 260 347 l 347 347 l 347 260 l 260 260 m 174 347 l 174 434 l 260 434 l 260 347 l 174 347 m 347 347 l 347 434 l 434 434 l 434 347 l 347 347 m 87 434 l 87 521 l 174 521 l 174 434 l 87 434 m 434 434 l 434 521 l 521 521 l 521 434 l 434 434 z "},"Ø":{"ha":608,"x_min":87,"x_max":608,"o":"m 87 0 l 87 87 l 174 87 l 174 0 l 87 0 m 260 0 l 260 87 l 434 87 l 434 0 l 260 0 m 174 87 l 174 174 l 260 174 l 260 87 l 174 87 m 434 87 l 434 174 l 521 174 l 521 87 l 434 87 m 260 174 l 260 347 l 347 347 l 347 174 l 260 174 m 87 174 l 87 521 l 174 521 l 174 174 l 87 174 m 347 347 l 347 521 l 434 521 l 434 347 l 347 347 m 521 174 l 521 521 l 608 521 l 608 174 l 521 174 m 174 521 l 174 608 l 260 608 l 260 521 l 174 521 m 434 521 l 434 608 l 521 608 l 521 521 l 434 521 m 260 608 l 260 694 l 434 694 l 434 608 l 260 608 m 521 608 l 521 694 l 608 694 l 608 608 l 521 608 z "},"Ù":{"ha":608,"x_min":87,"x_max":608,"o":"m 174 0 l 174 87 l 521 87 l 521 0 l 174 0 m 87 87 l 87 694 l 174 694 l 174 87 l 87 87 m 521 87 l 521 694 l 608 694 l 608 87 l 521 87 m 347 781 l 347 868 l 434 868 l 434 781 l 347 781 m 260 868 l 260 955 l 347 955 l 347 868 l 260 868 z "},"Ú":{"ha":608,"x_min":87,"x_max":608,"o":"m 174 0 l 174 87 l 521 87 l 521 0 l 174 0 m 87 87 l 87 694 l 174 694 l 174 87 l 87 87 m 521 87 l 521 694 l 608 694 l 608 87 l 521 87 m 260 781 l 260 868 l 347 868 l 347 781 l 260 781 m 347 868 l 347 955 l 434 955 l 434 868 l 347 868 z "},"Û":{"ha":608,"x_min":87,"x_max":608,"o":"m 174 0 l 174 87 l 521 87 l 521 0 l 174 0 m 87 87 l 87 694 l 174 694 l 174 87 l 87 87 m 521 87 l 521 694 l 608 694 l 608 87 l 521 87 m 174 781 l 174 868 l 260 868 l 260 781 l 174 781 m 434 781 l 434 868 l 521 868 l 521 781 l 434 781 m 260 868 l 260 955 l 434 955 l 434 868 l 260 868 z "},"Ü":{"ha":608,"x_min":87,"x_max":608,"o":"m 174 0 l 174 87 l 521 87 l 521 0 l 174 0 m 87 87 l 87 694 l 174 694 l 174 87 l 87 87 m 521 87 l 521 694 l 608 694 l 608 87 l 521 87 m 174 781 l 174 868 l 260 868 l 260 781 l 174 781 m 434 781 l 434 868 l 521 868 l 521 781 l 434 781 z "},"Ý":{"ha":608,"x_min":0,"x_max":608,"o":"m 260 0 l 260 347 l 347 347 l 347 0 l 260 0 m 174 347 l 174 434 l 260 434 l 260 347 l 174 347 m 347 347 l 347 434 l 434 434 l 434 347 l 347 347 m 87 434 l 87 521 l 174 521 l 174 434 l 87 434 m 434 434 l 434 521 l 521 521 l 521 434 l 434 434 m 0 521 l 0 694 l 87 694 l 87 521 l 0 521 m 521 521 l 521 694 l 608 694 l 608 521 l 521 521 m 260 781 l 260 868 l 347 868 l 347 781 l 260 781 m 347 868 l 347 955 l 434 955 l 434 868 l 347 868 z "},"Þ":{"ha":608,"x_min":87,"x_max":521,"o":"m 434 260 l 434 434 l 521 434 l 521 260 l 434 260 m 87 0 l 87 694 l 174 694 l 174 521 l 434 521 l 434 434 l 174 434 l 174 260 l 434 260 l 434 174 l 174 174 l 174 0 l 87 0 z "},"ß":{"ha":608,"x_min":0,"x_max":608,"o":"m 0 -87 l 0 0 l 87 0 l 87 -87 l 0 -87 m 521 87 l 521 347 l 608 347 l 608 87 l 521 87 m 434 347 l 434 434 l 521 434 l 521 347 l 434 347 m 87 0 l 87 694 l 174 694 l 174 521 l 434 521 l 434 434 l 174 434 l 174 87 l 521 87 l 521 0 l 87 0 m 434 521 l 434 694 l 521 694 l 521 521 l 434 521 m 174 694 l 174 781 l 434 781 l 434 694 l 174 694 z "},"à":{"ha":608,"x_min":87,"x_max":521,"o":"m 87 87 l 87 260 l 174 260 l 174 87 l 87 87 m 174 0 l 174 87 l 434 87 l 434 260 l 174 260 l 174 347 l 434 347 l 434 434 l 521 434 l 521 0 l 174 0 m 174 434 l 174 521 l 434 521 l 434 434 l 174 434 m 347 608 l 347 694 l 434 694 l 434 608 l 347 608 m 260 694 l 260 781 l 347 781 l 347 694 l 260 694 z "},"á":{"ha":608,"x_min":87,"x_max":521,"o":"m 87 87 l 87 260 l 174 260 l 174 87 l 87 87 m 174 0 l 174 87 l 434 87 l 434 260 l 174 260 l 174 347 l 434 347 l 434 434 l 521 434 l 521 0 l 174 0 m 174 434 l 174 521 l 434 521 l 434 434 l 174 434 m 260 608 l 260 694 l 347 694 l 347 608 l 260 608 m 347 694 l 347 781 l 434 781 l 434 694 l 347 694 z "},"â":{"ha":608,"x_min":87,"x_max":521,"o":"m 87 87 l 87 260 l 174 260 l 174 87 l 87 87 m 174 0 l 174 87 l 434 87 l 434 260 l 174 260 l 174 347 l 434 347 l 434 434 l 521 434 l 521 0 l 174 0 m 174 434 l 174 521 l 434 521 l 434 434 l 174 434 m 174 608 l 174 694 l 260 694 l 260 608 l 174 608 m 347 608 l 347 694 l 434 694 l 434 608 l 347 608 m 260 694 l 260 781 l 347 781 l 347 694 l 260 694 z "},"ã":{"ha":608,"x_min":87,"x_max":521,"o":"m 87 87 l 87 260 l 174 260 l 174 87 l 87 87 m 174 0 l 174 87 l 434 87 l 434 260 l 174 260 l 174 347 l 434 347 l 434 434 l 521 434 l 521 0 l 174 0 m 174 434 l 174 521 l 434 521 l 434 434 l 174 434 m 174 608 l 174 694 l 260 694 l 260 608 l 174 608 m 347 608 l 347 694 l 434 694 l 434 608 l 347 608 m 260 694 l 260 781 l 347 781 l 347 694 l 260 694 m 434 694 l 434 781 l 521 781 l 521 694 l 434 694 z "},"ä":{"ha":608,"x_min":87,"x_max":521,"o":"m 87 87 l 87 260 l 174 260 l 174 87 l 87 87 m 174 0 l 174 87 l 434 87 l 434 260 l 174 260 l 174 347 l 434 347 l 434 434 l 521 434 l 521 0 l 174 0 m 174 434 l 174 521 l 434 521 l 434 434 l 174 434 m 174 608 l 174 694 l 260 694 l 260 608 l 174 608 m 347 608 l 347 694 l 434 694 l 434 608 l 347 608 z "},"å":{"ha":608,"x_min":87,"x_max":521,"o":"m 87 87 l 87 260 l 174 260 l 174 87 l 87 87 m 174 0 l 174 87 l 434 87 l 434 260 l 174 260 l 174 347 l 434 347 l 434 434 l 521 434 l 521 0 l 174 0 m 174 434 l 174 521 l 434 521 l 434 434 l 174 434 m 260 608 l 260 694 l 347 694 l 347 608 l 260 608 m 174 694 l 174 781 l 260 781 l 260 694 l 174 694 m 347 694 l 347 781 l 434 781 l 434 694 l 347 694 m 260 781 l 260 868 l 347 868 l 347 781 l 260 781 z "},"æ":{"ha":608,"x_min":0,"x_max":608,"o":"m 521 87 l 521 174 l 608 174 l 608 87 l 521 87 m 0 87 l 0 260 l 87 260 l 87 87 l 0 87 m 87 0 l 87 87 l 260 87 l 260 260 l 87 260 l 87 347 l 260 347 l 260 434 l 347 434 l 347 347 l 521 347 l 521 434 l 608 434 l 608 260 l 347 260 l 347 87 l 521 87 l 521 0 l 87 0 m 87 434 l 87 521 l 260 521 l 260 434 l 87 434 m 347 434 l 347 521 l 521 521 l 521 434 l 347 434 z "},"ç":{"ha":608,"x_min":87,"x_max":521,"o":"m 174 -260 l 174 -174 l 260 -174 l 260 -260 l 174 -260 m 260 -174 l 260 0 l 174 0 l 174 87 l 434 87 l 434 0 l 347 0 l 347 -174 l 260 -174 m 434 87 l 434 174 l 521 174 l 521 87 l 434 87 m 87 87 l 87 434 l 174 434 l 174 87 l 87 87 m 434 347 l 434 434 l 521 434 l 521 347 l 434 347 m 174 434 l 174 521 l 434 521 l 434 434 l 174 434 z "},"è":{"ha":608,"x_min":87,"x_max":521,"o":"m 174 0 l 174 87 l 434 87 l 434 0 l 174 0 m 434 87 l 434 174 l 521 174 l 521 87 l 434 87 m 87 87 l 87 434 l 174 434 l 174 347 l 434 347 l 434 434 l 521 434 l 521 260 l 174 260 l 174 87 l 87 87 m 174 434 l 174 521 l 434 521 l 434 434 l 174 434 m 260 608 l 260 694 l 347 694 l 347 608 l 260 608 m 174 694 l 174 781 l 260 781 l 260 694 l 174 694 z "},"é":{"ha":608,"x_min":87,"x_max":521,"o":"m 174 0 l 174 87 l 434 87 l 434 0 l 174 0 m 434 87 l 434 174 l 521 174 l 521 87 l 434 87 m 87 87 l 87 434 l 174 434 l 174 347 l 434 347 l 434 434 l 521 434 l 521 260 l 174 260 l 174 87 l 87 87 m 174 434 l 174 521 l 434 521 l 434 434 l 174 434 m 260 608 l 260 694 l 347 694 l 347 608 l 260 608 m 347 694 l 347 781 l 434 781 l 434 694 l 347 694 z "},"ê":{"ha":608,"x_min":87,"x_max":521,"o":"m 174 0 l 174 87 l 434 87 l 434 0 l 174 0 m 434 87 l 434 174 l 521 174 l 521 87 l 434 87 m 87 87 l 87 434 l 174 434 l 174 347 l 434 347 l 434 434 l 521 434 l 521 260 l 174 260 l 174 87 l 87 87 m 174 434 l 174 521 l 434 521 l 434 434 l 174 434 m 174 608 l 174 694 l 260 694 l 260 608 l 174 608 m 347 608 l 347 694 l 434 694 l 434 608 l 347 608 m 260 694 l 260 781 l 347 781 l 347 694 l 260 694 z "},"ë":{"ha":608,"x_min":87,"x_max":521,"o":"m 174 0 l 174 87 l 434 87 l 434 0 l 174 0 m 434 87 l 434 174 l 521 174 l 521 87 l 434 87 m 87 87 l 87 434 l 174 434 l 174 347 l 434 347 l 434 434 l 521 434 l 521 260 l 174 260 l 174 87 l 87 87 m 174 434 l 174 521 l 434 521 l 434 434 l 174 434 m 174 608 l 174 694 l 260 694 l 260 608 l 174 608 m 347 608 l 347 694 l 434 694 l 434 608 l 347 608 z "},"ì":{"ha":608,"x_min":174,"x_max":347,"o":"m 260 0 l 260 434 l 174 434 l 174 521 l 347 521 l 347 0 l 260 0 m 260 608 l 260 694 l 347 694 l 347 608 l 260 608 m 174 694 l 174 781 l 260 781 l 260 694 l 174 694 z "},"í":{"ha":608,"x_min":174,"x_max":434,"o":"m 260 0 l 260 434 l 174 434 l 174 521 l 347 521 l 347 0 l 260 0 m 260 608 l 260 694 l 347 694 l 347 608 l 260 608 m 347 694 l 347 781 l 434 781 l 434 694 l 347 694 z "},"î":{"ha":608,"x_min":174,"x_max":434,"o":"m 260 0 l 260 434 l 174 434 l 174 521 l 347 521 l 347 0 l 260 0 m 174 608 l 174 694 l 260 694 l 260 608 l 174 608 m 347 608 l 347 694 l 434 694 l 434 608 l 347 608 m 260 694 l 260 781 l 347 781 l 347 694 l 260 694 z "},"ï":{"ha":608,"x_min":174,"x_max":434,"o":"m 260 0 l 260 434 l 174 434 l 174 521 l 347 521 l 347 0 l 260 0 m 174 608 l 174 694 l 260 694 l 260 608 l 174 608 m 347 608 l 347 694 l 434 694 l 434 608 l 347 608 z "},"ð":{"ha":608,"x_min":87,"x_max":521,"o":"m 174 0 l 174 87 l 434 87 l 434 0 l 174 0 m 87 87 l 87 347 l 174 347 l 174 87 l 87 87 m 260 521 l 260 608 l 347 608 l 347 521 l 260 521 m 434 87 l 434 347 l 174 347 l 174 434 l 434 434 l 434 608 l 521 608 l 521 87 l 434 87 m 347 608 l 347 694 l 434 694 l 434 608 l 347 608 m 174 694 l 174 781 l 347 781 l 347 694 l 174 694 m 434 694 l 434 781 l 521 781 l 521 694 l 434 694 z "},"ñ":{"ha":608,"x_min":87,"x_max":521,"o":"m 434 0 l 434 434 l 521 434 l 521 0 l 434 0 m 87 0 l 87 521 l 434 521 l 434 434 l 174 434 l 174 0 l 87 0 m 87 608 l 87 694 l 174 694 l 174 608 l 87 608 m 260 608 l 260 694 l 347 694 l 347 608 l 260 608 m 174 694 l 174 781 l 260 781 l 260 694 l 174 694 m 347 694 l 347 781 l 434 781 l 434 694 l 347 694 z "},"ò":{"ha":608,"x_min":87,"x_max":521,"o":"m 174 0 l 174 87 l 434 87 l 434 0 l 174 0 m 87 87 l 87 434 l 174 434 l 174 87 l 87 87 m 434 87 l 434 434 l 521 434 l 521 87 l 434 87 m 174 434 l 174 521 l 434 521 l 434 434 l 174 434 m 260 608 l 260 694 l 347 694 l 347 608 l 260 608 m 174 694 l 174 781 l 260 781 l 260 694 l 174 694 z "},"ó":{"ha":608,"x_min":87,"x_max":521,"o":"m 174 0 l 174 87 l 434 87 l 434 0 l 174 0 m 87 87 l 87 434 l 174 434 l 174 87 l 87 87 m 434 87 l 434 434 l 521 434 l 521 87 l 434 87 m 174 434 l 174 521 l 434 521 l 434 434 l 174 434 m 260 608 l 260 694 l 347 694 l 347 608 l 260 608 m 347 694 l 347 781 l 434 781 l 434 694 l 347 694 z "},"ô":{"ha":608,"x_min":87,"x_max":521,"o":"m 174 0 l 174 87 l 434 87 l 434 0 l 174 0 m 87 87 l 87 434 l 174 434 l 174 87 l 87 87 m 434 87 l 434 434 l 521 434 l 521 87 l 434 87 m 174 434 l 174 521 l 434 521 l 434 434 l 174 434 m 174 608 l 174 694 l 260 694 l 260 608 l 174 608 m 347 608 l 347 694 l 434 694 l 434 608 l 347 608 m 260 694 l 260 781 l 347 781 l 347 694 l 260 694 z "},"õ":{"ha":608,"x_min":87,"x_max":521,"o":"m 174 0 l 174 87 l 434 87 l 434 0 l 174 0 m 87 87 l 87 434 l 174 434 l 174 87 l 87 87 m 434 87 l 434 434 l 521 434 l 521 87 l 434 87 m 174 434 l 174 521 l 434 521 l 434 434 l 174 434 m 174 608 l 174 694 l 260 694 l 260 608 l 174 608 m 347 608 l 347 694 l 434 694 l 434 608 l 347 608 m 260 694 l 260 781 l 347 781 l 347 694 l 260 694 m 434 694 l 434 781 l 521 781 l 521 694 l 434 694 z "},"ö":{"ha":608,"x_min":87,"x_max":521,"o":"m 174 0 l 174 87 l 434 87 l 434 0 l 174 0 m 87 87 l 87 434 l 174 434 l 174 87 l 87 87 m 434 87 l 434 434 l 521 434 l 521 87 l 434 87 m 174 434 l 174 521 l 434 521 l 434 434 l 174 434 m 174 608 l 174 694 l 260 694 l 260 608 l 174 608 m 347 608 l 347 694 l 434 694 l 434 608 l 347 608 z "},"÷":{"ha":608,"x_min":87,"x_max":521,"o":"m 260 87 l 260 174 l 347 174 l 347 87 l 260 87 m 87 260 l 87 347 l 521 347 l 521 260 l 87 260 m 260 434 l 260 521 l 347 521 l 347 434 l 260 434 z "},"ø":{"ha":608,"x_min":87,"x_max":521,"o":"m 87 -87 l 87 0 l 174 0 l 174 -87 l 87 -87 m 260 174 l 260 347 l 347 347 l 347 174 l 260 174 m 174 0 l 174 87 l 87 87 l 87 434 l 174 434 l 174 174 l 260 174 l 260 87 l 434 87 l 434 0 l 174 0 m 434 87 l 434 347 l 347 347 l 347 434 l 174 434 l 174 521 l 434 521 l 434 434 l 521 434 l 521 87 l 434 87 m 434 521 l 434 608 l 521 608 l 521 521 l 434 521 z "},"ù":{"ha":608,"x_min":87,"x_max":521,"o":"m 87 87 l 87 521 l 174 521 l 174 87 l 87 87 m 174 0 l 174 87 l 434 87 l 434 521 l 521 521 l 521 0 l 174 0 m 260 608 l 260 694 l 347 694 l 347 608 l 260 608 m 174 694 l 174 781 l 260 781 l 260 694 l 174 694 z "},"ú":{"ha":608,"x_min":87,"x_max":521,"o":"m 87 87 l 87 521 l 174 521 l 174 87 l 87 87 m 174 0 l 174 87 l 434 87 l 434 521 l 521 521 l 521 0 l 174 0 m 260 608 l 260 694 l 347 694 l 347 608 l 260 608 m 347 694 l 347 781 l 434 781 l 434 694 l 347 694 z "},"û":{"ha":608,"x_min":87,"x_max":521,"o":"m 87 87 l 87 521 l 174 521 l 174 87 l 87 87 m 174 0 l 174 87 l 434 87 l 434 521 l 521 521 l 521 0 l 174 0 m 174 608 l 174 694 l 260 694 l 260 608 l 174 608 m 347 608 l 347 694 l 434 694 l 434 608 l 347 608 m 260 694 l 260 781 l 347 781 l 347 694 l 260 694 z "},"ü":{"ha":608,"x_min":87,"x_max":521,"o":"m 87 87 l 87 521 l 174 521 l 174 87 l 87 87 m 174 0 l 174 87 l 434 87 l 434 521 l 521 521 l 521 0 l 174 0 m 174 608 l 174 694 l 260 694 l 260 608 l 174 608 m 347 608 l 347 694 l 434 694 l 434 608 l 347 608 z "},"ý":{"ha":608,"x_min":87,"x_max":521,"o":"m 174 -260 l 174 -174 l 260 -174 l 260 -260 l 174 -260 m 260 -174 l 260 87 l 347 87 l 347 -174 l 260 -174 m 174 87 l 174 347 l 260 347 l 260 87 l 174 87 m 347 87 l 347 347 l 434 347 l 434 87 l 347 87 m 87 347 l 87 521 l 174 521 l 174 347 l 87 347 m 434 347 l 434 521 l 521 521 l 521 347 l 434 347 m 260 608 l 260 694 l 347 694 l 347 608 l 260 608 m 347 694 l 347 781 l 434 781 l 434 694 l 347 694 z "},"þ":{"ha":608,"x_min":87,"x_max":521,"o":"m 434 87 l 434 434 l 521 434 l 521 87 l 434 87 m 87 -174 l 87 694 l 174 694 l 174 521 l 434 521 l 434 434 l 174 434 l 174 87 l 434 87 l 434 0 l 174 0 l 174 -174 l 87 -174 z "},"ÿ":{"ha":608,"x_min":87,"x_max":521,"o":"m 174 -260 l 174 -174 l 260 -174 l 260 -260 l 174 -260 m 260 -174 l 260 87 l 347 87 l 347 -174 l 260 -174 m 174 87 l 174 347 l 260 347 l 260 87 l 174 87 m 347 87 l 347 347 l 434 347 l 434 87 l 347 87 m 87 347 l 87 521 l 174 521 l 174 347 l 87 347 m 434 347 l 434 521 l 521 521 l 521 347 l 434 347 m 174 608 l 174 694 l 260 694 l 260 608 l 174 608 m 347 608 l 347 694 l 434 694 l 434 608 l 347 608 z "},"Ÿ":{"ha":608,"x_min":0,"x_max":608,"o":"m 260 0 l 260 347 l 347 347 l 347 0 l 260 0 m 174 347 l 174 434 l 260 434 l 260 347 l 174 347 m 347 347 l 347 434 l 434 434 l 434 347 l 347 347 m 87 434 l 87 521 l 174 521 l 174 434 l 87 434 m 434 434 l 434 521 l 521 521 l 521 434 l 434 434 m 0 521 l 0 694 l 87 694 l 87 521 l 0 521 m 521 521 l 521 694 l 608 694 l 608 521 l 521 521 m 174 781 l 174 868 l 260 868 l 260 781 l 174 781 m 347 781 l 347 868 l 434 868 l 434 781 l 347 781 z "},"ɶ":{"ha":608,"x_min":0,"x_max":608,"o":"m 87 0 l 87 87 l 260 87 l 260 0 l 87 0 m 347 0 l 347 87 l 608 87 l 608 0 l 347 0 m 0 87 l 0 608 l 87 608 l 87 87 l 0 87 m 260 87 l 260 608 l 347 608 l 347 434 l 521 434 l 521 347 l 347 347 l 347 87 l 260 87 m 87 608 l 87 694 l 260 694 l 260 608 l 87 608 m 347 608 l 347 694 l 608 694 l 608 608 l 347 608 z "},"ʹ":{"ha":608,"x_min":260,"x_max":434,"o":"m 260 608 l 260 694 l 347 694 l 347 608 l 260 608 m 347 694 l 347 781 l 434 781 l 434 694 l 347 694 z "},"͵":{"ha":608,"x_min":87,"x_max":260,"o":"m 87 -174 l 87 -87 l 174 -87 l 174 -174 l 87 -174 m 174 -87 l 174 174 l 260 174 l 260 -87 l 174 -87 z "},"ͺ":{"ha":608,"x_min":174,"x_max":347,"o":"m 260 -260 l 260 -174 l 347 -174 l 347 -260 l 260 -260 m 174 -174 l 174 0 l 260 0 l 260 -174 l 174 -174 z "},";":{"ha":608,"x_min":87,"x_max":260,"o":"m 87 -174 l 87 -87 l 174 -87 l 174 -174 l 87 -174 m 174 -87 l 174 174 l 260 174 l 260 -87 l 174 -87 m 174 347 l 174 521 l 260 521 l 260 347 l 174 347 z "},"΄":{"ha":608,"x_min":260,"x_max":434,"o":"m 260 608 l 260 694 l 347 694 l 347 608 l 260 608 m 347 694 l 347 781 l 434 781 l 434 694 l 347 694 z "},"΅":{"ha":608,"x_min":87,"x_max":521,"o":"m 87 608 l 87 694 l 174 694 l 174 608 l 87 608 m 260 608 l 260 694 l 347 694 l 347 608 l 260 608 m 434 608 l 434 694 l 521 694 l 521 608 l 434 608 m 347 694 l 347 781 l 434 781 l 434 694 l 347 694 z "},"Ά":{"ha":608,"x_min":0,"x_max":608,"o":"m 87 0 l 87 260 l 174 260 l 174 0 l 87 0 m 521 0 l 521 260 l 608 260 l 608 0 l 521 0 m 174 260 l 174 521 l 260 521 l 260 347 l 434 347 l 434 521 l 521 521 l 521 260 l 174 260 m 260 521 l 260 694 l 434 694 l 434 521 l 260 521 m 0 781 l 0 955 l 87 955 l 87 781 l 0 781 z "},"·":{"ha":608,"x_min":174,"x_max":347,"o":"m 174 347 l 174 521 l 347 521 l 347 347 l 174 347 z "},"Έ":{"ha":608,"x_min":0,"x_max":521,"o":"m 87 0 l 87 694 l 521 694 l 521 608 l 174 608 l 174 434 l 434 434 l 434 347 l 174 347 l 174 87 l 521 87 l 521 0 l 87 0 m 0 781 l 0 955 l 87 955 l 87 781 l 0 781 z "},"Ή":{"ha":608,"x_min":0,"x_max":608,"o":"m 87 0 l 87 694 l 174 694 l 174 434 l 521 434 l 521 694 l 608 694 l 608 0 l 521 0 l 521 347 l 174 347 l 174 0 l 87 0 m 0 781 l 0 955 l 87 955 l 87 781 l 0 781 z "},"Ί":{"ha":608,"x_min":0,"x_max":434,"o":"m 174 0 l 174 87 l 260 87 l 260 608 l 174 608 l 174 694 l 434 694 l 434 608 l 347 608 l 347 87 l 434 87 l 434 0 l 174 0 m 0 781 l 0 955 l 87 955 l 87 781 l 0 781 z "},"Ό":{"ha":608,"x_min":0,"x_max":608,"o":"m 260 0 l 260 87 l 434 87 l 434 0 l 260 0 m 174 87 l 174 174 l 260 174 l 260 87 l 174 87 m 434 87 l 434 174 l 521 174 l 521 87 l 434 87 m 87 174 l 87 521 l 174 521 l 174 174 l 87 174 m 521 174 l 521 521 l 608 521 l 608 174 l 521 174 m 174 521 l 174 608 l 260 608 l 260 521 l 174 521 m 434 521 l 434 608 l 521 608 l 521 521 l 434 521 m 260 608 l 260 694 l 434 694 l 434 608 l 260 608 m 0 781 l 0 955 l 87 955 l 87 781 l 0 781 z "},"Ύ":{"ha":608,"x_min":0,"x_max":608,"o":"m 260 0 l 260 347 l 347 347 l 347 0 l 260 0 m 174 347 l 174 434 l 260 434 l 260 347 l 174 347 m 347 347 l 347 434 l 434 434 l 434 347 l 347 347 m 87 434 l 87 521 l 174 521 l 174 434 l 87 434 m 434 434 l 434 521 l 521 521 l 521 434 l 434 434 m 0 521 l 0 694 l 87 694 l 87 521 l 0 521 m 521 521 l 521 694 l 608 694 l 608 521 l 521 521 m 0 781 l 0 955 l 87 955 l 87 781 l 0 781 z "},"Ώ":{"ha":608,"x_min":0,"x_max":608,"o":"m 87 0 l 87 87 l 174 87 l 174 174 l 260 174 l 260 0 l 87 0 m 434 0 l 434 174 l 521 174 l 521 87 l 608 87 l 608 0 l 434 0 m 87 174 l 87 521 l 174 521 l 174 174 l 87 174 m 521 174 l 521 521 l 608 521 l 608 174 l 521 174 m 174 521 l 174 608 l 260 608 l 260 521 l 174 521 m 434 521 l 434 608 l 521 608 l 521 521 l 434 521 m 260 608 l 260 694 l 434 694 l 434 608 l 260 608 m 0 781 l 0 955 l 87 955 l 87 781 l 0 781 z "},"ΐ":{"ha":608,"x_min":87,"x_max":521,"o":"m 347 0 l 347 87 l 434 87 l 434 0 l 347 0 m 260 87 l 260 434 l 174 434 l 174 521 l 347 521 l 347 87 l 260 87 m 87 608 l 87 694 l 174 694 l 174 608 l 87 608 m 260 608 l 260 694 l 347 694 l 347 608 l 260 608 m 434 608 l 434 694 l 521 694 l 521 608 l 434 608 m 347 694 l 347 781 l 434 781 l 434 694 l 347 694 z "},"Α":{"ha":608,"x_min":87,"x_max":608,"o":"m 87 0 l 87 260 l 174 260 l 174 0 l 87 0 m 521 0 l 521 260 l 608 260 l 608 0 l 521 0 m 174 260 l 174 521 l 260 521 l 260 347 l 434 347 l 434 521 l 521 521 l 521 260 l 174 260 m 260 521 l 260 694 l 434 694 l 434 521 l 260 521 z "},"Β":{"ha":608,"x_min":87,"x_max":608,"o":"m 521 87 l 521 347 l 608 347 l 608 87 l 521 87 m 87 0 l 87 694 l 434 694 l 434 608 l 174 608 l 174 434 l 434 434 l 434 608 l 521 608 l 521 347 l 174 347 l 174 87 l 521 87 l 521 0 l 87 0 z "},"Γ":{"ha":608,"x_min":87,"x_max":608,"o":"m 87 0 l 87 694 l 608 694 l 608 608 l 174 608 l 174 0 l 87 0 z "},"Δ":{"ha":608,"x_min":87,"x_max":608,"o":"m 87 0 l 87 260 l 174 260 l 174 87 l 521 87 l 521 260 l 608 260 l 608 0 l 87 0 m 174 260 l 174 521 l 260 521 l 260 260 l 174 260 m 434 260 l 434 521 l 521 521 l 521 260 l 434 260 m 260 521 l 260 694 l 434 694 l 434 521 l 260 521 z "},"Ε":{"ha":608,"x_min":87,"x_max":521,"o":"m 87 0 l 87 694 l 521 694 l 521 608 l 174 608 l 174 434 l 434 434 l 434 347 l 174 347 l 174 87 l 521 87 l 521 0 l 87 0 z "},"Ζ":{"ha":608,"x_min":87,"x_max":608,"o":"m 87 0 l 87 174 l 174 174 l 174 87 l 608 87 l 608 0 l 87 0 m 174 174 l 174 260 l 260 260 l 260 174 l 174 174 m 260 260 l 260 347 l 347 347 l 347 260 l 260 260 m 347 347 l 347 434 l 434 434 l 434 347 l 347 347 m 434 434 l 434 521 l 521 521 l 521 434 l 434 434 m 521 521 l 521 608 l 87 608 l 87 694 l 608 694 l 608 521 l 521 521 z "},"Η":{"ha":608,"x_min":87,"x_max":608,"o":"m 87 0 l 87 694 l 174 694 l 174 434 l 521 434 l 521 694 l 608 694 l 608 0 l 521 0 l 521 347 l 174 347 l 174 0 l 87 0 z "},"Θ":{"ha":608,"x_min":87,"x_max":608,"o":"m 260 0 l 260 87 l 434 87 l 434 0 l 260 0 m 174 87 l 174 174 l 260 174 l 260 87 l 174 87 m 434 87 l 434 174 l 521 174 l 521 87 l 434 87 m 260 347 l 260 434 l 434 434 l 434 347 l 260 347 m 87 174 l 87 521 l 174 521 l 174 174 l 87 174 m 521 174 l 521 521 l 608 521 l 608 174 l 521 174 m 174 521 l 174 608 l 260 608 l 260 521 l 174 521 m 434 521 l 434 608 l 521 608 l 521 521 l 434 521 m 260 608 l 260 694 l 434 694 l 434 608 l 260 608 z "},"Ι":{"ha":608,"x_min":174,"x_max":434,"o":"m 174 0 l 174 87 l 260 87 l 260 608 l 174 608 l 174 694 l 434 694 l 434 608 l 347 608 l 347 87 l 434 87 l 434 0 l 174 0 z "},"Κ":{"ha":608,"x_min":87,"x_max":608,"o":"m 521 0 l 521 87 l 608 87 l 608 0 l 521 0 m 434 87 l 434 174 l 521 174 l 521 87 l 434 87 m 347 174 l 347 260 l 434 260 l 434 174 l 347 174 m 347 434 l 347 521 l 434 521 l 434 434 l 347 434 m 434 521 l 434 608 l 521 608 l 521 521 l 434 521 m 87 0 l 87 694 l 174 694 l 174 347 l 260 347 l 260 434 l 347 434 l 347 260 l 174 260 l 174 0 l 87 0 m 521 608 l 521 694 l 608 694 l 608 608 l 521 608 z "},"Λ":{"ha":608,"x_min":87,"x_max":608,"o":"m 87 0 l 87 260 l 174 260 l 174 0 l 87 0 m 521 0 l 521 260 l 608 260 l 608 0 l 521 0 m 174 260 l 174 521 l 260 521 l 260 260 l 174 260 m 434 260 l 434 521 l 521 521 l 521 260 l 434 260 m 260 521 l 260 694 l 434 694 l 434 521 l 260 521 z "},"Μ":{"ha":608,"x_min":0,"x_max":608,"o":"m 260 174 l 260 347 l 347 347 l 347 174 l 260 174 m 174 347 l 174 521 l 260 521 l 260 347 l 174 347 m 347 347 l 347 521 l 434 521 l 434 347 l 347 347 m 0 0 l 0 694 l 174 694 l 174 521 l 87 521 l 87 0 l 0 0 m 521 0 l 521 521 l 434 521 l 434 694 l 608 694 l 608 0 l 521 0 z "},"Ν":{"ha":608,"x_min":87,"x_max":608,"o":"m 347 174 l 347 347 l 434 347 l 434 174 l 347 174 m 260 347 l 260 521 l 347 521 l 347 347 l 260 347 m 87 0 l 87 694 l 260 694 l 260 521 l 174 521 l 174 0 l 87 0 m 434 0 l 434 174 l 521 174 l 521 694 l 608 694 l 608 0 l 434 0 z "},"Ξ":{"ha":608,"x_min":87,"x_max":608,"o":"m 87 0 l 87 87 l 608 87 l 608 0 l 87 0 m 174 347 l 174 434 l 521 434 l 521 347 l 174 347 m 87 608 l 87 694 l 608 694 l 608 608 l 87 608 z "},"Ο":{"ha":608,"x_min":87,"x_max":608,"o":"m 260 0 l 260 87 l 434 87 l 434 0 l 260 0 m 174 87 l 174 174 l 260 174 l 260 87 l 174 87 m 434 87 l 434 174 l 521 174 l 521 87 l 434 87 m 87 174 l 87 521 l 174 521 l 174 174 l 87 174 m 521 174 l 521 521 l 608 521 l 608 174 l 521 174 m 174 521 l 174 608 l 260 608 l 260 521 l 174 521 m 434 521 l 434 608 l 521 608 l 521 521 l 434 521 m 260 608 l 260 694 l 434 694 l 434 608 l 260 608 z "},"Π":{"ha":608,"x_min":87,"x_max":608,"o":"m 87 0 l 87 694 l 608 694 l 608 0 l 521 0 l 521 608 l 174 608 l 174 0 l 87 0 z "},"Ρ":{"ha":608,"x_min":87,"x_max":521,"o":"m 434 347 l 434 608 l 521 608 l 521 347 l 434 347 m 87 0 l 87 694 l 434 694 l 434 608 l 174 608 l 174 347 l 434 347 l 434 260 l 174 260 l 174 0 l 87 0 z "},"Σ":{"ha":608,"x_min":87,"x_max":521,"o":"m 87 0 l 87 260 l 174 260 l 174 87 l 521 87 l 521 0 l 87 0 m 174 260 l 174 347 l 260 347 l 260 260 l 174 260 m 260 347 l 260 434 l 347 434 l 347 347 l 260 347 m 174 434 l 174 521 l 260 521 l 260 434 l 174 434 m 87 521 l 87 694 l 521 694 l 521 608 l 174 608 l 174 521 l 87 521 z "},"Τ":{"ha":608,"x_min":0,"x_max":608,"o":"m 260 0 l 260 608 l 0 608 l 0 694 l 608 694 l 608 608 l 347 608 l 347 0 l 260 0 z "},"Υ":{"ha":608,"x_min":0,"x_max":608,"o":"m 260 0 l 260 347 l 347 347 l 347 0 l 260 0 m 174 347 l 174 434 l 260 434 l 260 347 l 174 347 m 347 347 l 347 434 l 434 434 l 434 347 l 347 347 m 87 434 l 87 521 l 174 521 l 174 434 l 87 434 m 434 434 l 434 521 l 521 521 l 521 434 l 434 434 m 0 521 l 0 694 l 87 694 l 87 521 l 0 521 m 521 521 l 521 694 l 608 694 l 608 521 l 521 521 z "},"Φ":{"ha":608,"x_min":0,"x_max":608,"o":"m 0 260 l 0 521 l 87 521 l 87 260 l 0 260 m 521 260 l 521 521 l 608 521 l 608 260 l 521 260 m 260 0 l 260 174 l 87 174 l 87 260 l 260 260 l 260 521 l 87 521 l 87 608 l 260 608 l 260 694 l 347 694 l 347 608 l 521 608 l 521 521 l 347 521 l 347 260 l 521 260 l 521 174 l 347 174 l 347 0 l 260 0 z "},"Χ":{"ha":608,"x_min":87,"x_max":608,"o":"m 87 0 l 87 174 l 174 174 l 174 0 l 87 0 m 521 0 l 521 174 l 608 174 l 608 0 l 521 0 m 174 174 l 174 260 l 260 260 l 260 174 l 174 174 m 434 174 l 434 260 l 521 260 l 521 174 l 434 174 m 260 260 l 260 434 l 434 434 l 434 260 l 260 260 m 174 434 l 174 521 l 260 521 l 260 434 l 174 434 m 434 434 l 434 521 l 521 521 l 521 434 l 434 434 m 87 521 l 87 694 l 174 694 l 174 521 l 87 521 m 521 521 l 521 694 l 608 694 l 608 521 l 521 521 z "},"Ψ":{"ha":608,"x_min":0,"x_max":608,"o":"m 0 260 l 0 694 l 87 694 l 87 260 l 0 260 m 260 0 l 260 174 l 87 174 l 87 260 l 260 260 l 260 694 l 347 694 l 347 260 l 521 260 l 521 174 l 347 174 l 347 0 l 260 0 m 521 260 l 521 694 l 608 694 l 608 260 l 521 260 z "},"Ω":{"ha":608,"x_min":87,"x_max":608,"o":"m 87 0 l 87 87 l 174 87 l 174 174 l 260 174 l 260 0 l 87 0 m 434 0 l 434 174 l 521 174 l 521 87 l 608 87 l 608 0 l 434 0 m 87 174 l 87 521 l 174 521 l 174 174 l 87 174 m 521 174 l 521 521 l 608 521 l 608 174 l 521 174 m 174 521 l 174 608 l 260 608 l 260 521 l 174 521 m 434 521 l 434 608 l 521 608 l 521 521 l 434 521 m 260 608 l 260 694 l 434 694 l 434 608 l 260 608 z "},"Ϊ":{"ha":608,"x_min":174,"x_max":434,"o":"m 174 0 l 174 87 l 260 87 l 260 521 l 174 521 l 174 608 l 434 608 l 434 521 l 347 521 l 347 87 l 434 87 l 434 0 l 174 0 m 174 694 l 174 781 l 260 781 l 260 694 l 174 694 m 347 694 l 347 781 l 434 781 l 434 694 l 347 694 z "},"Ϋ":{"ha":608,"x_min":0,"x_max":608,"o":"m 260 0 l 260 347 l 347 347 l 347 0 l 260 0 m 174 347 l 174 434 l 260 434 l 260 347 l 174 347 m 347 347 l 347 434 l 434 434 l 434 347 l 347 347 m 87 434 l 87 521 l 174 521 l 174 434 l 87 434 m 434 434 l 434 521 l 521 521 l 521 434 l 434 434 m 0 521 l 0 694 l 87 694 l 87 521 l 0 521 m 521 521 l 521 694 l 608 694 l 608 521 l 521 521 m 174 694 l 174 781 l 260 781 l 260 694 l 174 694 m 347 694 l 347 781 l 434 781 l 434 694 l 347 694 z "},"ά":{"ha":608,"x_min":87,"x_max":608,"o":"m 174 0 l 174 87 l 434 87 l 434 0 l 174 0 m 521 0 l 521 87 l 608 87 l 608 0 l 521 0 m 87 87 l 87 434 l 174 434 l 174 87 l 87 87 m 434 87 l 434 434 l 521 434 l 521 87 l 434 87 m 174 434 l 174 521 l 434 521 l 434 434 l 174 434 m 521 434 l 521 521 l 608 521 l 608 434 l 521 434 m 260 608 l 260 694 l 347 694 l 347 608 l 260 608 m 347 694 l 347 781 l 434 781 l 434 694 l 347 694 z "},"έ":{"ha":608,"x_min":87,"x_max":521,"o":"m 174 0 l 174 87 l 434 87 l 434 0 l 174 0 m 434 87 l 434 174 l 521 174 l 521 87 l 434 87 m 87 87 l 87 260 l 174 260 l 174 87 l 87 87 m 174 260 l 174 347 l 347 347 l 347 260 l 174 260 m 87 347 l 87 434 l 174 434 l 174 347 l 87 347 m 434 347 l 434 434 l 521 434 l 521 347 l 434 347 m 174 434 l 174 521 l 434 521 l 434 434 l 174 434 m 260 608 l 260 694 l 347 694 l 347 608 l 260 608 m 347 694 l 347 781 l 434 781 l 434 694 l 347 694 z "},"ή":{"ha":608,"x_min":87,"x_max":521,"o":"m 434 -260 l 434 434 l 521 434 l 521 -260 l 434 -260 m 87 0 l 87 521 l 174 521 l 174 434 l 260 434 l 260 347 l 174 347 l 174 0 l 87 0 m 260 434 l 260 521 l 434 521 l 434 434 l 260 434 m 260 608 l 260 694 l 347 694 l 347 608 l 260 608 m 347 694 l 347 781 l 434 781 l 434 694 l 347 694 z "},"ί":{"ha":608,"x_min":174,"x_max":434,"o":"m 347 0 l 347 87 l 434 87 l 434 0 l 347 0 m 260 87 l 260 434 l 174 434 l 174 521 l 347 521 l 347 87 l 260 87 m 260 608 l 260 694 l 347 694 l 347 608 l 260 608 m 347 694 l 347 781 l 434 781 l 434 694 l 347 694 z "},"ΰ":{"ha":608,"x_min":87,"x_max":521,"o":"m 174 0 l 174 87 l 434 87 l 434 0 l 174 0 m 87 87 l 87 521 l 174 521 l 174 87 l 87 87 m 434 87 l 434 521 l 521 521 l 521 87 l 434 87 m 87 608 l 87 694 l 174 694 l 174 608 l 87 608 m 260 608 l 260 694 l 347 694 l 347 608 l 260 608 m 434 608 l 434 694 l 521 694 l 521 608 l 434 608 m 347 694 l 347 781 l 434 781 l 434 694 l 347 694 z "},"α":{"ha":608,"x_min":87,"x_max":608,"o":"m 174 0 l 174 87 l 434 87 l 434 0 l 174 0 m 521 0 l 521 87 l 608 87 l 608 0 l 521 0 m 87 87 l 87 434 l 174 434 l 174 87 l 87 87 m 434 87 l 434 434 l 521 434 l 521 87 l 434 87 m 174 434 l 174 521 l 434 521 l 434 434 l 174 434 m 521 434 l 521 521 l 608 521 l 608 434 l 521 434 z "},"β":{"ha":608,"x_min":87,"x_max":521,"o":"m 434 87 l 434 347 l 521 347 l 521 87 l 434 87 m 347 347 l 347 434 l 434 434 l 434 347 l 347 347 m 87 -174 l 87 694 l 174 694 l 174 521 l 347 521 l 347 434 l 174 434 l 174 87 l 434 87 l 434 0 l 174 0 l 174 -174 l 87 -174 m 347 521 l 347 694 l 434 694 l 434 521 l 347 521 m 174 694 l 174 781 l 347 781 l 347 694 l 174 694 z "},"γ":{"ha":608,"x_min":87,"x_max":521,"o":"m 260 -260 l 260 0 l 174 0 l 174 260 l 260 260 l 260 87 l 434 87 l 434 0 l 347 0 l 347 -260 l 260 -260 m 87 260 l 87 521 l 174 521 l 174 260 l 87 260 m 434 87 l 434 521 l 521 521 l 521 87 l 434 87 z "},"δ":{"ha":608,"x_min":87,"x_max":521,"o":"m 174 0 l 174 87 l 434 87 l 434 0 l 174 0 m 87 87 l 87 434 l 174 434 l 174 87 l 87 87 m 434 87 l 434 434 l 521 434 l 521 87 l 434 87 m 174 434 l 174 521 l 260 521 l 260 608 l 347 608 l 347 521 l 434 521 l 434 434 l 174 434 m 174 608 l 174 694 l 260 694 l 260 608 l 174 608 m 260 694 l 260 781 l 521 781 l 521 694 l 260 694 z "},"ε":{"ha":608,"x_min":87,"x_max":521,"o":"m 174 0 l 174 87 l 434 87 l 434 0 l 174 0 m 434 87 l 434 174 l 521 174 l 521 87 l 434 87 m 87 87 l 87 260 l 174 260 l 174 87 l 87 87 m 174 260 l 174 347 l 347 347 l 347 260 l 174 260 m 87 347 l 87 434 l 174 434 l 174 347 l 87 347 m 434 347 l 434 434 l 521 434 l 521 347 l 434 347 m 174 434 l 174 521 l 434 521 l 434 434 l 174 434 z "},"ζ":{"ha":608,"x_min":87,"x_max":521,"o":"m 347 -260 l 347 -174 l 434 -174 l 434 -260 l 347 -260 m 434 -174 l 434 0 l 260 0 l 260 87 l 521 87 l 521 -174 l 434 -174 m 174 87 l 174 174 l 260 174 l 260 87 l 174 87 m 87 174 l 87 434 l 174 434 l 174 174 l 87 174 m 174 434 l 174 521 l 260 521 l 260 434 l 174 434 m 260 521 l 260 608 l 347 608 l 347 521 l 260 521 m 347 608 l 347 694 l 87 694 l 87 781 l 521 781 l 521 694 l 434 694 l 434 608 l 347 608 z "},"η":{"ha":608,"x_min":87,"x_max":521,"o":"m 434 -260 l 434 434 l 521 434 l 521 -260 l 434 -260 m 87 0 l 87 521 l 174 521 l 174 434 l 260 434 l 260 347 l 174 347 l 174 0 l 87 0 m 260 434 l 260 521 l 434 521 l 434 434 l 260 434 z "},"θ":{"ha":608,"x_min":87,"x_max":521,"o":"m 174 0 l 174 87 l 434 87 l 434 0 l 174 0 m 87 87 l 87 694 l 174 694 l 174 434 l 434 434 l 434 694 l 521 694 l 521 87 l 434 87 l 434 347 l 174 347 l 174 87 l 87 87 m 174 694 l 174 781 l 434 781 l 434 694 l 174 694 z "},"ι":{"ha":608,"x_min":174,"x_max":434,"o":"m 347 0 l 347 87 l 434 87 l 434 0 l 347 0 m 260 87 l 260 434 l 174 434 l 174 521 l 347 521 l 347 87 l 260 87 z "},"κ":{"ha":608,"x_min":87,"x_max":521,"o":"m 434 0 l 434 87 l 521 87 l 521 0 l 434 0 m 347 87 l 347 174 l 434 174 l 434 87 l 347 87 m 347 347 l 347 434 l 434 434 l 434 347 l 347 347 m 87 0 l 87 521 l 174 521 l 174 260 l 260 260 l 260 347 l 347 347 l 347 174 l 174 174 l 174 0 l 87 0 m 434 434 l 434 521 l 521 521 l 521 434 l 434 434 z "},"λ":{"ha":608,"x_min":87,"x_max":521,"o":"m 87 0 l 87 174 l 174 174 l 174 0 l 87 0 m 434 0 l 434 174 l 521 174 l 521 0 l 434 0 m 174 174 l 174 434 l 260 434 l 260 694 l 347 694 l 347 434 l 434 434 l 434 174 l 347 174 l 347 347 l 260 347 l 260 174 l 174 174 m 87 694 l 87 781 l 260 781 l 260 694 l 87 694 z "},"μ":{"ha":608,"x_min":87,"x_max":608,"o":"m 260 0 l 260 87 l 434 87 l 434 0 l 260 0 m 521 0 l 521 87 l 608 87 l 608 0 l 521 0 m 87 -174 l 87 521 l 174 521 l 174 174 l 260 174 l 260 87 l 174 87 l 174 -174 l 87 -174 m 434 87 l 434 521 l 521 521 l 521 87 l 434 87 z "},"ν":{"ha":608,"x_min":87,"x_max":521,"o":"m 260 0 l 260 174 l 347 174 l 347 0 l 260 0 m 174 174 l 174 347 l 260 347 l 260 174 l 174 174 m 347 174 l 347 347 l 434 347 l 434 174 l 347 174 m 87 347 l 87 521 l 174 521 l 174 347 l 87 347 m 434 347 l 434 521 l 521 521 l 521 347 l 434 347 z "},"ξ":{"ha":608,"x_min":174,"x_max":521,"o":"m 347 -260 l 347 -174 l 434 -174 l 434 -260 l 347 -260 m 434 -174 l 434 0 l 260 0 l 260 87 l 521 87 l 521 -174 l 434 -174 m 174 87 l 174 347 l 260 347 l 260 87 l 174 87 m 260 347 l 260 521 l 521 521 l 521 434 l 347 434 l 347 347 l 260 347 m 174 521 l 174 694 l 260 694 l 260 521 l 174 521 m 260 694 l 260 781 l 521 781 l 521 694 l 260 694 z "},"ο":{"ha":608,"x_min":87,"x_max":521,"o":"m 174 0 l 174 87 l 434 87 l 434 0 l 174 0 m 87 87 l 87 434 l 174 434 l 174 87 l 87 87 m 434 87 l 434 434 l 521 434 l 521 87 l 434 87 m 174 434 l 174 521 l 434 521 l 434 434 l 174 434 z "},"π":{"ha":608,"x_min":87,"x_max":521,"o":"m 87 0 l 87 521 l 521 521 l 521 0 l 434 0 l 434 434 l 174 434 l 174 0 l 87 0 z "},"ρ":{"ha":608,"x_min":87,"x_max":521,"o":"m 87 -260 l 87 434 l 174 434 l 174 87 l 434 87 l 434 0 l 174 0 l 174 -260 l 87 -260 m 434 87 l 434 434 l 521 434 l 521 87 l 434 87 m 174 434 l 174 521 l 434 521 l 434 434 l 174 434 z "},"ς":{"ha":608,"x_min":87,"x_max":521,"o":"m 347 -260 l 347 -174 l 434 -174 l 434 -260 l 347 -260 m 434 -174 l 434 0 l 174 0 l 174 87 l 521 87 l 521 -174 l 434 -174 m 87 87 l 87 434 l 174 434 l 174 87 l 87 87 m 434 347 l 434 434 l 521 434 l 521 347 l 434 347 m 174 434 l 174 521 l 434 521 l 434 434 l 174 434 z "},"σ":{"ha":608,"x_min":87,"x_max":608,"o":"m 174 0 l 174 87 l 434 87 l 434 0 l 174 0 m 87 87 l 87 434 l 174 434 l 174 87 l 87 87 m 434 87 l 434 434 l 174 434 l 174 521 l 608 521 l 608 434 l 521 434 l 521 87 l 434 87 z "},"τ":{"ha":608,"x_min":87,"x_max":521,"o":"m 347 0 l 347 87 l 521 87 l 521 0 l 347 0 m 260 87 l 260 434 l 87 434 l 87 521 l 521 521 l 521 434 l 347 434 l 347 87 l 260 87 z "},"υ":{"ha":608,"x_min":87,"x_max":521,"o":"m 174 0 l 174 87 l 434 87 l 434 0 l 174 0 m 87 87 l 87 521 l 174 521 l 174 87 l 87 87 m 434 87 l 434 521 l 521 521 l 521 87 l 434 87 z "},"φ":{"ha":608,"x_min":0,"x_max":608,"o":"m 0 87 l 0 434 l 87 434 l 87 87 l 0 87 m 521 87 l 521 434 l 608 434 l 608 87 l 521 87 m 87 434 l 87 521 l 174 521 l 174 434 l 87 434 m 260 -260 l 260 0 l 87 0 l 87 87 l 260 87 l 260 521 l 521 521 l 521 434 l 347 434 l 347 87 l 521 87 l 521 0 l 347 0 l 347 -260 l 260 -260 z "},"χ":{"ha":608,"x_min":87,"x_max":521,"o":"m 87 -260 l 87 -87 l 174 -87 l 174 -260 l 87 -260 m 434 -260 l 434 -87 l 521 -87 l 521 -260 l 434 -260 m 174 -87 l 174 87 l 260 87 l 260 174 l 174 174 l 174 347 l 260 347 l 260 260 l 347 260 l 347 347 l 434 347 l 434 174 l 347 174 l 347 87 l 434 87 l 434 -87 l 347 -87 l 347 0 l 260 0 l 260 -87 l 174 -87 m 87 347 l 87 521 l 174 521 l 174 347 l 87 347 m 434 347 l 434 521 l 521 521 l 521 347 l 434 347 z "},"ψ":{"ha":608,"x_min":0,"x_max":608,"o":"m 0 87 l 0 521 l 87 521 l 87 87 l 0 87 m 521 87 l 521 521 l 608 521 l 608 87 l 521 87 m 260 -260 l 260 0 l 87 0 l 87 87 l 260 87 l 260 694 l 347 694 l 347 87 l 521 87 l 521 0 l 347 0 l 347 -260 l 260 -260 z "},"ω":{"ha":608,"x_min":0,"x_max":608,"o":"m 87 0 l 87 87 l 260 87 l 260 0 l 87 0 m 347 0 l 347 87 l 521 87 l 521 0 l 347 0 m 260 87 l 260 347 l 347 347 l 347 87 l 260 87 m 0 87 l 0 434 l 87 434 l 87 87 l 0 87 m 521 87 l 521 434 l 608 434 l 608 87 l 521 87 m 87 434 l 87 521 l 174 521 l 174 434 l 87 434 m 434 434 l 434 521 l 521 521 l 521 434 l 434 434 z "},"ϊ":{"ha":608,"x_min":174,"x_max":434,"o":"m 347 0 l 347 87 l 434 87 l 434 0 l 347 0 m 260 87 l 260 434 l 174 434 l 174 521 l 347 521 l 347 87 l 260 87 m 174 694 l 174 781 l 260 781 l 260 694 l 174 694 m 347 694 l 347 781 l 434 781 l 434 694 l 347 694 z "},"ϋ":{"ha":608,"x_min":87,"x_max":521,"o":"m 174 0 l 174 87 l 434 87 l 434 0 l 174 0 m 87 87 l 87 521 l 174 521 l 174 87 l 87 87 m 434 87 l 434 521 l 521 521 l 521 87 l 434 87 m 174 694 l 174 781 l 260 781 l 260 694 l 174 694 m 347 694 l 347 781 l 434 781 l 434 694 l 347 694 z "},"ό":{"ha":608,"x_min":87,"x_max":521,"o":"m 174 0 l 174 87 l 434 87 l 434 0 l 174 0 m 87 87 l 87 434 l 174 434 l 174 87 l 87 87 m 434 87 l 434 434 l 521 434 l 521 87 l 434 87 m 174 434 l 174 521 l 434 521 l 434 434 l 174 434 m 260 608 l 260 694 l 347 694 l 347 608 l 260 608 m 347 694 l 347 781 l 434 781 l 434 694 l 347 694 z "},"ύ":{"ha":608,"x_min":87,"x_max":521,"o":"m 174 0 l 174 87 l 434 87 l 434 0 l 174 0 m 87 87 l 87 521 l 174 521 l 174 87 l 87 87 m 434 87 l 434 521 l 521 521 l 521 87 l 434 87 m 260 608 l 260 694 l 347 694 l 347 608 l 260 608 m 347 694 l 347 781 l 434 781 l 434 694 l 347 694 z "},"ώ":{"ha":608,"x_min":0,"x_max":608,"o":"m 87 0 l 87 87 l 260 87 l 260 0 l 87 0 m 347 0 l 347 87 l 521 87 l 521 0 l 347 0 m 260 87 l 260 347 l 347 347 l 347 87 l 260 87 m 0 87 l 0 434 l 87 434 l 87 87 l 0 87 m 521 87 l 521 434 l 608 434 l 608 87 l 521 87 m 87 434 l 87 521 l 174 521 l 174 434 l 87 434 m 434 434 l 434 521 l 521 521 l 521 434 l 434 434 m 260 608 l 260 694 l 347 694 l 347 608 l 260 608 m 347 694 l 347 781 l 434 781 l 434 694 l 347 694 z "},"ϐ":{"ha":608,"x_min":87,"x_max":521,"o":"m 174 0 l 174 87 l 434 87 l 434 0 l 174 0 m 434 87 l 434 347 l 521 347 l 521 87 l 434 87 m 87 87 l 87 694 l 174 694 l 174 521 l 347 521 l 347 434 l 434 434 l 434 347 l 174 347 l 174 87 l 87 87 m 347 521 l 347 694 l 434 694 l 434 521 l 347 521 m 174 694 l 174 781 l 347 781 l 347 694 l 174 694 z "},"ϑ":{"ha":608,"x_min":0,"x_max":608,"o":"m 174 0 l 174 87 l 434 87 l 434 0 l 174 0 m 0 87 l 0 174 l 174 174 l 174 87 l 0 87 m 434 87 l 434 347 l 87 347 l 87 694 l 174 694 l 174 434 l 434 434 l 434 694 l 521 694 l 521 434 l 608 434 l 608 347 l 521 347 l 521 87 l 434 87 m 174 694 l 174 781 l 434 781 l 434 694 l 174 694 z "},"ϕ":{"ha":608,"x_min":0,"x_max":608,"o":"m 0 87 l 0 434 l 87 434 l 87 87 l 0 87 m 521 87 l 521 434 l 608 434 l 608 87 l 521 87 m 260 -260 l 260 0 l 87 0 l 87 87 l 260 87 l 260 434 l 87 434 l 87 521 l 260 521 l 260 694 l 347 694 l 347 521 l 521 521 l 521 434 l 347 434 l 347 87 l 521 87 l 521 0 l 347 0 l 347 -260 l 260 -260 z "},"ϱ":{"ha":608,"x_min":174,"x_max":608,"o":"m 521 -347 l 521 -260 l 608 -260 l 608 -347 l 521 -347 m 260 -260 l 260 -174 l 521 -174 l 521 -260 l 260 -260 m 174 -174 l 174 434 l 260 434 l 260 87 l 521 87 l 521 0 l 260 0 l 260 -174 l 174 -174 m 521 87 l 521 434 l 608 434 l 608 87 l 521 87 m 260 434 l 260 521 l 521 521 l 521 434 l 260 434 z "},"ϴ":{"ha":608,"x_min":87,"x_max":608,"o":"m 260 0 l 260 87 l 434 87 l 434 0 l 260 0 m 174 87 l 174 174 l 260 174 l 260 87 l 174 87 m 434 87 l 434 174 l 521 174 l 521 87 l 434 87 m 87 174 l 87 521 l 174 521 l 174 434 l 521 434 l 521 521 l 608 521 l 608 174 l 521 174 l 521 347 l 174 347 l 174 174 l 87 174 m 174 521 l 174 608 l 260 608 l 260 521 l 174 521 m 434 521 l 434 608 l 521 608 l 521 521 l 434 521 m 260 608 l 260 694 l 434 694 l 434 608 l 260 608 z "},"Ѐ":{"ha":608,"x_min":87,"x_max":521,"o":"m 87 0 l 87 694 l 521 694 l 521 608 l 174 608 l 174 434 l 434 434 l 434 347 l 174 347 l 174 87 l 521 87 l 521 0 l 87 0 m 260 781 l 260 868 l 347 868 l 347 781 l 260 781 m 174 868 l 174 955 l 260 955 l 260 868 l 174 868 z "},"Ё":{"ha":608,"x_min":87,"x_max":521,"o":"m 87 0 l 87 694 l 521 694 l 521 608 l 174 608 l 174 434 l 434 434 l 434 347 l 174 347 l 174 87 l 521 87 l 521 0 l 87 0 m 174 781 l 174 868 l 260 868 l 260 781 l 174 781 m 347 781 l 347 868 l 434 868 l 434 781 l 347 781 z "},"Ђ":{"ha":608,"x_min":0,"x_max":608,"o":"m 347 0 l 347 87 l 521 87 l 521 0 l 347 0 m 174 0 l 174 608 l 0 608 l 0 694 l 521 694 l 521 608 l 260 608 l 260 434 l 608 434 l 608 87 l 521 87 l 521 347 l 260 347 l 260 0 l 174 0 z "},"Ѓ":{"ha":608,"x_min":87,"x_max":608,"o":"m 87 0 l 87 694 l 608 694 l 608 608 l 174 608 l 174 0 l 87 0 m 260 781 l 260 868 l 347 868 l 347 781 l 260 781 m 347 868 l 347 955 l 434 955 l 434 868 l 347 868 z "},"Є":{"ha":608,"x_min":87,"x_max":608,"o":"m 260 0 l 260 87 l 521 87 l 521 0 l 260 0 m 174 87 l 174 174 l 260 174 l 260 87 l 174 87 m 521 87 l 521 174 l 608 174 l 608 87 l 521 87 m 87 174 l 87 521 l 174 521 l 174 434 l 434 434 l 434 347 l 174 347 l 174 174 l 87 174 m 174 521 l 174 608 l 260 608 l 260 521 l 174 521 m 521 521 l 521 608 l 608 608 l 608 521 l 521 521 m 260 608 l 260 694 l 521 694 l 521 608 l 260 608 z "},"Ѕ":{"ha":608,"x_min":87,"x_max":608,"o":"m 174 0 l 174 87 l 521 87 l 521 0 l 174 0 m 87 87 l 87 174 l 174 174 l 174 87 l 87 87 m 521 87 l 521 260 l 608 260 l 608 87 l 521 87 m 347 260 l 347 347 l 521 347 l 521 260 l 347 260 m 174 347 l 174 434 l 347 434 l 347 347 l 174 347 m 87 434 l 87 608 l 174 608 l 174 434 l 87 434 m 521 521 l 521 608 l 608 608 l 608 521 l 521 521 m 174 608 l 174 694 l 521 694 l 521 608 l 174 608 z "},"І":{"ha":608,"x_min":174,"x_max":434,"o":"m 174 0 l 174 87 l 260 87 l 260 608 l 174 608 l 174 694 l 434 694 l 434 608 l 347 608 l 347 87 l 434 87 l 434 0 l 174 0 z "},"Ї":{"ha":608,"x_min":174,"x_max":434,"o":"m 174 0 l 174 87 l 260 87 l 260 608 l 174 608 l 174 694 l 434 694 l 434 608 l 347 608 l 347 87 l 434 87 l 434 0 l 174 0 m 174 781 l 174 868 l 260 868 l 260 781 l 174 781 m 347 781 l 347 868 l 434 868 l 434 781 l 347 781 z "},"Ј":{"ha":608,"x_min":87,"x_max":434,"o":"m 87 0 l 87 87 l 347 87 l 347 0 l 87 0 m 347 87 l 347 608 l 260 608 l 260 694 l 434 694 l 434 87 l 347 87 z "},"Љ":{"ha":608,"x_min":0,"x_max":608,"o":"m 0 0 l 0 87 l 87 87 l 87 0 l 0 0 m 521 87 l 521 260 l 608 260 l 608 87 l 521 87 m 87 87 l 87 608 l 174 608 l 174 87 l 87 87 m 347 0 l 347 608 l 174 608 l 174 694 l 434 694 l 434 347 l 521 347 l 521 260 l 434 260 l 434 87 l 521 87 l 521 0 l 347 0 z "},"Њ":{"ha":608,"x_min":0,"x_max":608,"o":"m 521 87 l 521 347 l 608 347 l 608 87 l 521 87 m 0 0 l 0 694 l 87 694 l 87 434 l 347 434 l 347 694 l 434 694 l 434 434 l 521 434 l 521 347 l 434 347 l 434 87 l 521 87 l 521 0 l 347 0 l 347 347 l 87 347 l 87 0 l 0 0 z "},"Ћ":{"ha":608,"x_min":0,"x_max":608,"o":"m 521 0 l 521 347 l 608 347 l 608 0 l 521 0 m 347 347 l 347 434 l 521 434 l 521 347 l 347 347 m 174 0 l 174 608 l 0 608 l 0 694 l 434 694 l 434 608 l 260 608 l 260 347 l 347 347 l 347 260 l 260 260 l 260 0 l 174 0 z "},"Ќ":{"ha":608,"x_min":87,"x_max":608,"o":"m 521 0 l 521 87 l 608 87 l 608 0 l 521 0 m 434 87 l 434 174 l 521 174 l 521 87 l 434 87 m 347 174 l 347 260 l 434 260 l 434 174 l 347 174 m 347 434 l 347 521 l 434 521 l 434 434 l 347 434 m 434 521 l 434 608 l 521 608 l 521 521 l 434 521 m 87 0 l 87 694 l 174 694 l 174 347 l 260 347 l 260 434 l 347 434 l 347 260 l 174 260 l 174 0 l 87 0 m 521 608 l 521 694 l 608 694 l 608 608 l 521 608 m 260 781 l 260 868 l 347 868 l 347 781 l 260 781 m 347 868 l 347 955 l 434 955 l 434 868 l 347 868 z "},"Ѝ":{"ha":608,"x_min":87,"x_max":608,"o":"m 260 174 l 260 347 l 347 347 l 347 174 l 260 174 m 347 347 l 347 521 l 434 521 l 434 347 l 347 347 m 87 0 l 87 694 l 174 694 l 174 174 l 260 174 l 260 0 l 87 0 m 521 0 l 521 521 l 434 521 l 434 694 l 608 694 l 608 0 l 521 0 m 347 781 l 347 868 l 521 868 l 521 781 l 347 781 m 174 868 l 174 955 l 347 955 l 347 868 l 174 868 z "},"Ў":{"ha":608,"x_min":87,"x_max":608,"o":"m 174 0 l 174 87 l 260 87 l 260 0 l 174 0 m 260 87 l 260 347 l 434 347 l 434 260 l 347 260 l 347 87 l 260 87 m 174 347 l 174 521 l 260 521 l 260 347 l 174 347 m 434 347 l 434 521 l 521 521 l 521 347 l 434 347 m 87 521 l 87 694 l 174 694 l 174 521 l 87 521 m 521 521 l 521 694 l 608 694 l 608 521 l 521 521 m 260 781 l 260 868 l 434 868 l 434 781 l 260 781 m 174 868 l 174 955 l 260 955 l 260 868 l 174 868 m 434 868 l 434 955 l 521 955 l 521 868 l 434 868 z "},"Џ":{"ha":608,"x_min":87,"x_max":608,"o":"m 347 -174 l 347 0 l 87 0 l 87 694 l 174 694 l 174 87 l 521 87 l 521 694 l 608 694 l 608 0 l 434 0 l 434 -174 l 347 -174 z "},"А":{"ha":608,"x_min":87,"x_max":608,"o":"m 87 0 l 87 260 l 174 260 l 174 0 l 87 0 m 521 0 l 521 260 l 608 260 l 608 0 l 521 0 m 174 260 l 174 521 l 260 521 l 260 347 l 434 347 l 434 521 l 521 521 l 521 260 l 174 260 m 260 521 l 260 694 l 434 694 l 434 521 l 260 521 z "},"Б":{"ha":608,"x_min":87,"x_max":608,"o":"m 521 87 l 521 347 l 608 347 l 608 87 l 521 87 m 87 0 l 87 694 l 521 694 l 521 608 l 174 608 l 174 434 l 521 434 l 521 347 l 174 347 l 174 87 l 521 87 l 521 0 l 87 0 z "},"В":{"ha":608,"x_min":87,"x_max":608,"o":"m 521 87 l 521 347 l 608 347 l 608 87 l 521 87 m 87 0 l 87 694 l 434 694 l 434 608 l 174 608 l 174 434 l 434 434 l 434 608 l 521 608 l 521 347 l 174 347 l 174 87 l 521 87 l 521 0 l 87 0 z "},"Г":{"ha":608,"x_min":87,"x_max":608,"o":"m 87 0 l 87 694 l 608 694 l 608 608 l 174 608 l 174 0 l 87 0 z "},"Д":{"ha":608,"x_min":0,"x_max":608,"o":"m 87 174 l 87 608 l 174 608 l 174 174 l 87 174 m 0 -174 l 0 174 l 87 174 l 87 87 l 434 87 l 434 608 l 174 608 l 174 694 l 521 694 l 521 87 l 608 87 l 608 -174 l 521 -174 l 521 0 l 87 0 l 87 -174 l 0 -174 z "},"Е":{"ha":608,"x_min":87,"x_max":521,"o":"m 87 0 l 87 694 l 521 694 l 521 608 l 174 608 l 174 434 l 434 434 l 434 347 l 174 347 l 174 87 l 521 87 l 521 0 l 87 0 z "},"Ж":{"ha":608,"x_min":0,"x_max":608,"o":"m 0 0 l 0 174 l 87 174 l 87 0 l 0 0 m 521 0 l 521 174 l 608 174 l 608 0 l 521 0 m 87 174 l 87 260 l 174 260 l 174 174 l 87 174 m 434 174 l 434 260 l 521 260 l 521 174 l 434 174 m 87 434 l 87 521 l 174 521 l 174 434 l 87 434 m 434 434 l 434 521 l 521 521 l 521 434 l 434 434 m 0 521 l 0 694 l 87 694 l 87 521 l 0 521 m 260 0 l 260 260 l 174 260 l 174 434 l 260 434 l 260 694 l 347 694 l 347 434 l 434 434 l 434 260 l 347 260 l 347 0 l 260 0 m 521 521 l 521 694 l 608 694 l 608 521 l 521 521 z "},"З":{"ha":608,"x_min":87,"x_max":521,"o":"m 174 0 l 174 87 l 434 87 l 434 0 l 174 0 m 87 87 l 87 174 l 174 174 l 174 87 l 87 87 m 434 87 l 434 347 l 521 347 l 521 87 l 434 87 m 260 347 l 260 434 l 434 434 l 434 347 l 260 347 m 87 521 l 87 608 l 174 608 l 174 521 l 87 521 m 434 434 l 434 608 l 521 608 l 521 434 l 434 434 m 174 608 l 174 694 l 434 694 l 434 608 l 174 608 z "},"И":{"ha":608,"x_min":87,"x_max":608,"o":"m 260 174 l 260 347 l 347 347 l 347 174 l 260 174 m 347 347 l 347 521 l 434 521 l 434 347 l 347 347 m 87 0 l 87 694 l 174 694 l 174 174 l 260 174 l 260 0 l 87 0 m 521 0 l 521 521 l 434 521 l 434 694 l 608 694 l 608 0 l 521 0 z "},"Й":{"ha":608,"x_min":87,"x_max":608,"o":"m 260 174 l 260 347 l 347 347 l 347 174 l 260 174 m 347 347 l 347 521 l 434 521 l 434 347 l 347 347 m 87 0 l 87 694 l 174 694 l 174 174 l 260 174 l 260 0 l 87 0 m 521 0 l 521 521 l 434 521 l 434 694 l 608 694 l 608 0 l 521 0 m 260 781 l 260 868 l 434 868 l 434 781 l 260 781 m 174 868 l 174 955 l 260 955 l 260 868 l 174 868 m 434 868 l 434 955 l 521 955 l 521 868 l 434 868 z "},"К":{"ha":608,"x_min":87,"x_max":608,"o":"m 521 0 l 521 87 l 608 87 l 608 0 l 521 0 m 434 87 l 434 174 l 521 174 l 521 87 l 434 87 m 347 174 l 347 260 l 434 260 l 434 174 l 347 174 m 347 434 l 347 521 l 434 521 l 434 434 l 347 434 m 434 521 l 434 608 l 521 608 l 521 521 l 434 521 m 87 0 l 87 694 l 174 694 l 174 347 l 260 347 l 260 434 l 347 434 l 347 260 l 174 260 l 174 0 l 87 0 m 521 608 l 521 694 l 608 694 l 608 608 l 521 608 z "},"Л":{"ha":608,"x_min":87,"x_max":608,"o":"m 87 0 l 87 87 l 174 87 l 174 0 l 87 0 m 174 87 l 174 608 l 260 608 l 260 87 l 174 87 m 521 0 l 521 608 l 260 608 l 260 694 l 608 694 l 608 0 l 521 0 z "},"М":{"ha":608,"x_min":0,"x_max":608,"o":"m 260 174 l 260 347 l 347 347 l 347 174 l 260 174 m 174 347 l 174 521 l 260 521 l 260 347 l 174 347 m 347 347 l 347 521 l 434 521 l 434 347 l 347 347 m 0 0 l 0 694 l 174 694 l 174 521 l 87 521 l 87 0 l 0 0 m 521 0 l 521 521 l 434 521 l 434 694 l 608 694 l 608 0 l 521 0 z "},"Н":{"ha":608,"x_min":87,"x_max":608,"o":"m 87 0 l 87 694 l 174 694 l 174 434 l 521 434 l 521 694 l 608 694 l 608 0 l 521 0 l 521 347 l 174 347 l 174 0 l 87 0 z "},"О":{"ha":608,"x_min":87,"x_max":608,"o":"m 260 0 l 260 87 l 434 87 l 434 0 l 260 0 m 174 87 l 174 174 l 260 174 l 260 87 l 174 87 m 434 87 l 434 174 l 521 174 l 521 87 l 434 87 m 87 174 l 87 521 l 174 521 l 174 174 l 87 174 m 521 174 l 521 521 l 608 521 l 608 174 l 521 174 m 174 521 l 174 608 l 260 608 l 260 521 l 174 521 m 434 521 l 434 608 l 521 608 l 521 521 l 434 521 m 260 608 l 260 694 l 434 694 l 434 608 l 260 608 z "},"П":{"ha":608,"x_min":87,"x_max":608,"o":"m 87 0 l 87 694 l 608 694 l 608 0 l 521 0 l 521 608 l 174 608 l 174 0 l 87 0 z "},"Р":{"ha":608,"x_min":87,"x_max":521,"o":"m 434 347 l 434 608 l 521 608 l 521 347 l 434 347 m 87 0 l 87 694 l 434 694 l 434 608 l 174 608 l 174 347 l 434 347 l 434 260 l 174 260 l 174 0 l 87 0 z "},"С":{"ha":608,"x_min":87,"x_max":608,"o":"m 260 0 l 260 87 l 521 87 l 521 0 l 260 0 m 174 87 l 174 174 l 260 174 l 260 87 l 174 87 m 521 87 l 521 174 l 608 174 l 608 87 l 521 87 m 87 174 l 87 521 l 174 521 l 174 174 l 87 174 m 174 521 l 174 608 l 260 608 l 260 521 l 174 521 m 521 521 l 521 608 l 608 608 l 608 521 l 521 521 m 260 608 l 260 694 l 521 694 l 521 608 l 260 608 z "},"Т":{"ha":608,"x_min":0,"x_max":608,"o":"m 260 0 l 260 608 l 0 608 l 0 694 l 608 694 l 608 608 l 347 608 l 347 0 l 260 0 z "},"У":{"ha":608,"x_min":87,"x_max":608,"o":"m 174 0 l 174 87 l 260 87 l 260 0 l 174 0 m 260 87 l 260 347 l 434 347 l 434 260 l 347 260 l 347 87 l 260 87 m 174 347 l 174 521 l 260 521 l 260 347 l 174 347 m 434 347 l 434 521 l 521 521 l 521 347 l 434 347 m 87 521 l 87 694 l 174 694 l 174 521 l 87 521 m 521 521 l 521 694 l 608 694 l 608 521 l 521 521 z "},"Ф":{"ha":608,"x_min":0,"x_max":608,"o":"m 0 260 l 0 521 l 87 521 l 87 260 l 0 260 m 521 260 l 521 521 l 608 521 l 608 260 l 521 260 m 260 0 l 260 174 l 87 174 l 87 260 l 260 260 l 260 521 l 87 521 l 87 608 l 260 608 l 260 694 l 347 694 l 347 608 l 521 608 l 521 521 l 347 521 l 347 260 l 521 260 l 521 174 l 347 174 l 347 0 l 260 0 z "},"Х":{"ha":608,"x_min":87,"x_max":608,"o":"m 87 0 l 87 174 l 174 174 l 174 0 l 87 0 m 521 0 l 521 174 l 608 174 l 608 0 l 521 0 m 174 174 l 174 260 l 260 260 l 260 174 l 174 174 m 434 174 l 434 260 l 521 260 l 521 174 l 434 174 m 260 260 l 260 434 l 434 434 l 434 260 l 260 260 m 174 434 l 174 521 l 260 521 l 260 434 l 174 434 m 434 434 l 434 521 l 521 521 l 521 434 l 434 434 m 87 521 l 87 694 l 174 694 l 174 521 l 87 521 m 521 521 l 521 694 l 608 694 l 608 521 l 521 521 z "},"Ц":{"ha":608,"x_min":87,"x_max":608,"o":"m 521 -174 l 521 0 l 608 0 l 608 -174 l 521 -174 m 87 0 l 87 694 l 174 694 l 174 87 l 434 87 l 434 694 l 521 694 l 521 0 l 87 0 z "},"Ч":{"ha":608,"x_min":87,"x_max":608,"o":"m 87 260 l 87 694 l 174 694 l 174 260 l 87 260 m 521 0 l 521 174 l 174 174 l 174 260 l 521 260 l 521 694 l 608 694 l 608 0 l 521 0 z "},"Ш":{"ha":608,"x_min":87,"x_max":521,"o":"m 87 0 l 87 694 l 174 694 l 174 87 l 260 87 l 260 694 l 347 694 l 347 87 l 434 87 l 434 694 l 521 694 l 521 0 l 87 0 z "},"Щ":{"ha":608,"x_min":87,"x_max":608,"o":"m 521 -174 l 521 0 l 87 0 l 87 694 l 174 694 l 174 87 l 260 87 l 260 694 l 347 694 l 347 87 l 434 87 l 434 694 l 521 694 l 521 87 l 608 87 l 608 -174 l 521 -174 z "},"Ъ":{"ha":608,"x_min":0,"x_max":521,"o":"m 434 87 l 434 347 l 521 347 l 521 87 l 434 87 m 174 0 l 174 608 l 0 608 l 0 694 l 260 694 l 260 434 l 434 434 l 434 347 l 260 347 l 260 87 l 434 87 l 434 0 l 174 0 z "},"Ы":{"ha":608,"x_min":87,"x_max":608,"o":"m 347 87 l 347 347 l 434 347 l 434 87 l 347 87 m 87 0 l 87 694 l 174 694 l 174 434 l 347 434 l 347 347 l 174 347 l 174 87 l 347 87 l 347 0 l 87 0 m 521 0 l 521 694 l 608 694 l 608 0 l 521 0 z "},"Ь":{"ha":608,"x_min":87,"x_max":434,"o":"m 347 87 l 347 347 l 434 347 l 434 87 l 347 87 m 87 0 l 87 694 l 174 694 l 174 434 l 347 434 l 347 347 l 174 347 l 174 87 l 347 87 l 347 0 l 87 0 z "},"Э":{"ha":608,"x_min":87,"x_max":608,"o":"m 174 0 l 174 87 l 434 87 l 434 0 l 174 0 m 87 87 l 87 174 l 174 174 l 174 87 l 87 87 m 434 87 l 434 174 l 521 174 l 521 87 l 434 87 m 521 174 l 521 347 l 260 347 l 260 434 l 521 434 l 521 521 l 608 521 l 608 174 l 521 174 m 87 521 l 87 608 l 174 608 l 174 521 l 87 521 m 434 521 l 434 608 l 521 608 l 521 521 l 434 521 m 174 608 l 174 694 l 434 694 l 434 608 l 174 608 z "},"Ю":{"ha":608,"x_min":87,"x_max":608,"o":"m 347 0 l 347 87 l 521 87 l 521 0 l 347 0 m 521 87 l 521 608 l 608 608 l 608 87 l 521 87 m 87 0 l 87 694 l 174 694 l 174 434 l 260 434 l 260 608 l 347 608 l 347 87 l 260 87 l 260 347 l 174 347 l 174 0 l 87 0 m 347 608 l 347 694 l 521 694 l 521 608 l 347 608 z "},"Я":{"ha":608,"x_min":87,"x_max":608,"o":"m 87 0 l 87 87 l 174 87 l 174 0 l 87 0 m 174 87 l 174 174 l 260 174 l 260 87 l 174 87 m 174 347 l 174 608 l 260 608 l 260 347 l 174 347 m 521 0 l 521 260 l 347 260 l 347 174 l 260 174 l 260 347 l 521 347 l 521 608 l 260 608 l 260 694 l 608 694 l 608 0 l 521 0 z "},"а":{"ha":608,"x_min":87,"x_max":521,"o":"m 87 87 l 87 260 l 174 260 l 174 87 l 87 87 m 174 0 l 174 87 l 434 87 l 434 260 l 174 260 l 174 347 l 434 347 l 434 434 l 521 434 l 521 0 l 174 0 m 174 434 l 174 521 l 434 521 l 434 434 l 174 434 z "},"б":{"ha":608,"x_min":87,"x_max":521,"o":"m 174 0 l 174 87 l 434 87 l 434 0 l 174 0 m 434 87 l 434 434 l 521 434 l 521 87 l 434 87 m 87 87 l 87 608 l 174 608 l 174 521 l 434 521 l 434 434 l 174 434 l 174 87 l 87 87 m 174 608 l 174 694 l 434 694 l 434 608 l 174 608 m 434 694 l 434 781 l 521 781 l 521 694 l 434 694 z "},"в":{"ha":608,"x_min":87,"x_max":521,"o":"m 434 87 l 434 260 l 521 260 l 521 87 l 434 87 m 434 347 l 434 434 l 521 434 l 521 347 l 434 347 m 87 0 l 87 521 l 434 521 l 434 434 l 174 434 l 174 347 l 434 347 l 434 260 l 174 260 l 174 87 l 434 87 l 434 0 l 87 0 z "},"г":{"ha":608,"x_min":87,"x_max":521,"o":"m 87 0 l 87 521 l 521 521 l 521 434 l 174 434 l 174 0 l 87 0 z "},"д":{"ha":608,"x_min":0,"x_max":608,"o":"m 0 -174 l 0 87 l 87 87 l 87 434 l 174 434 l 174 87 l 434 87 l 434 434 l 174 434 l 174 521 l 521 521 l 521 87 l 608 87 l 608 -174 l 521 -174 l 521 0 l 87 0 l 87 -174 l 0 -174 z "},"е":{"ha":608,"x_min":87,"x_max":521,"o":"m 174 0 l 174 87 l 434 87 l 434 0 l 174 0 m 434 87 l 434 174 l 521 174 l 521 87 l 434 87 m 87 87 l 87 434 l 174 434 l 174 347 l 434 347 l 434 434 l 521 434 l 521 260 l 174 260 l 174 87 l 87 87 m 174 434 l 174 521 l 434 521 l 434 434 l 174 434 z "},"ж":{"ha":608,"x_min":0,"x_max":608,"o":"m 0 0 l 0 87 l 87 87 l 87 0 l 0 0 m 521 0 l 521 87 l 608 87 l 608 0 l 521 0 m 87 87 l 87 174 l 174 174 l 174 87 l 87 87 m 434 87 l 434 174 l 521 174 l 521 87 l 434 87 m 87 347 l 87 434 l 174 434 l 174 347 l 87 347 m 434 347 l 434 434 l 521 434 l 521 347 l 434 347 m 0 434 l 0 521 l 87 521 l 87 434 l 0 434 m 260 0 l 260 174 l 174 174 l 174 347 l 260 347 l 260 521 l 347 521 l 347 347 l 434 347 l 434 174 l 347 174 l 347 0 l 260 0 m 521 434 l 521 521 l 608 521 l 608 434 l 521 434 z "},"з":{"ha":608,"x_min":87,"x_max":521,"o":"m 174 0 l 174 87 l 434 87 l 434 0 l 174 0 m 87 87 l 87 174 l 174 174 l 174 87 l 87 87 m 434 87 l 434 260 l 521 260 l 521 87 l 434 87 m 347 260 l 347 347 l 434 347 l 434 260 l 347 260 m 87 347 l 87 434 l 174 434 l 174 347 l 87 347 m 434 347 l 434 434 l 521 434 l 521 347 l 434 347 m 174 434 l 174 521 l 434 521 l 434 434 l 174 434 z "},"и":{"ha":608,"x_min":87,"x_max":521,"o":"m 260 174 l 260 347 l 347 347 l 347 174 l 260 174 m 87 0 l 87 521 l 174 521 l 174 174 l 260 174 l 260 87 l 174 87 l 174 0 l 87 0 m 434 0 l 434 347 l 347 347 l 347 434 l 434 434 l 434 521 l 521 521 l 521 0 l 434 0 z "},"й":{"ha":608,"x_min":87,"x_max":521,"o":"m 260 174 l 260 347 l 347 347 l 347 174 l 260 174 m 87 0 l 87 521 l 174 521 l 174 174 l 260 174 l 260 87 l 174 87 l 174 0 l 87 0 m 434 0 l 434 347 l 347 347 l 347 434 l 434 434 l 434 521 l 521 521 l 521 0 l 434 0 m 260 521 l 260 608 l 347 608 l 347 521 l 260 521 m 174 608 l 174 694 l 260 694 l 260 608 l 174 608 m 347 608 l 347 694 l 434 694 l 434 608 l 347 608 z "},"к":{"ha":608,"x_min":87,"x_max":521,"o":"m 434 0 l 434 87 l 521 87 l 521 0 l 434 0 m 347 87 l 347 174 l 434 174 l 434 87 l 347 87 m 347 347 l 347 434 l 434 434 l 434 347 l 347 347 m 87 0 l 87 521 l 174 521 l 174 260 l 260 260 l 260 347 l 347 347 l 347 174 l 174 174 l 174 0 l 87 0 m 434 434 l 434 521 l 521 521 l 521 434 l 434 434 z "},"л":{"ha":608,"x_min":87,"x_max":521,"o":"m 87 0 l 87 87 l 174 87 l 174 0 l 87 0 m 434 0 l 434 434 l 260 434 l 260 87 l 174 87 l 174 521 l 521 521 l 521 0 l 434 0 z "},"м":{"ha":608,"x_min":87,"x_max":521,"o":"m 260 174 l 260 347 l 347 347 l 347 174 l 260 174 m 87 0 l 87 521 l 174 521 l 174 434 l 260 434 l 260 347 l 174 347 l 174 0 l 87 0 m 434 0 l 434 347 l 347 347 l 347 434 l 434 434 l 434 521 l 521 521 l 521 0 l 434 0 z "},"н":{"ha":608,"x_min":87,"x_max":521,"o":"m 87 0 l 87 521 l 174 521 l 174 347 l 434 347 l 434 521 l 521 521 l 521 0 l 434 0 l 434 260 l 174 260 l 174 0 l 87 0 z "},"о":{"ha":608,"x_min":87,"x_max":521,"o":"m 174 0 l 174 87 l 434 87 l 434 0 l 174 0 m 87 87 l 87 434 l 174 434 l 174 87 l 87 87 m 434 87 l 434 434 l 521 434 l 521 87 l 434 87 m 174 434 l 174 521 l 434 521 l 434 434 l 174 434 z "},"п":{"ha":608,"x_min":87,"x_max":521,"o":"m 87 0 l 87 521 l 521 521 l 521 0 l 434 0 l 434 434 l 174 434 l 174 0 l 87 0 z "},"р":{"ha":608,"x_min":87,"x_max":521,"o":"m 434 87 l 434 434 l 521 434 l 521 87 l 434 87 m 87 -260 l 87 521 l 434 521 l 434 434 l 174 434 l 174 87 l 434 87 l 434 0 l 174 0 l 174 -260 l 87 -260 z "},"с":{"ha":608,"x_min":87,"x_max":521,"o":"m 174 0 l 174 87 l 434 87 l 434 0 l 174 0 m 434 87 l 434 174 l 521 174 l 521 87 l 434 87 m 87 87 l 87 434 l 174 434 l 174 87 l 87 87 m 434 347 l 434 434 l 521 434 l 521 347 l 434 347 m 174 434 l 174 521 l 434 521 l 434 434 l 174 434 z "},"т":{"ha":608,"x_min":87,"x_max":521,"o":"m 260 0 l 260 434 l 87 434 l 87 521 l 521 521 l 521 434 l 347 434 l 347 0 l 260 0 z "},"у":{"ha":608,"x_min":87,"x_max":521,"o":"m 174 -260 l 174 -174 l 260 -174 l 260 -260 l 174 -260 m 260 -174 l 260 87 l 347 87 l 347 -174 l 260 -174 m 174 87 l 174 347 l 260 347 l 260 87 l 174 87 m 347 87 l 347 347 l 434 347 l 434 87 l 347 87 m 87 347 l 87 521 l 174 521 l 174 347 l 87 347 m 434 347 l 434 521 l 521 521 l 521 347 l 434 347 z "},"ф":{"ha":608,"x_min":0,"x_max":608,"o":"m 0 87 l 0 434 l 87 434 l 87 87 l 0 87 m 521 87 l 521 434 l 608 434 l 608 87 l 521 87 m 260 -260 l 260 0 l 87 0 l 87 87 l 260 87 l 260 434 l 87 434 l 87 521 l 260 521 l 260 694 l 347 694 l 347 521 l 521 521 l 521 434 l 347 434 l 347 87 l 521 87 l 521 0 l 347 0 l 347 -260 l 260 -260 z "},"х":{"ha":608,"x_min":87,"x_max":521,"o":"m 87 0 l 87 87 l 174 87 l 174 0 l 87 0 m 434 0 l 434 87 l 521 87 l 521 0 l 434 0 m 174 87 l 174 174 l 260 174 l 260 87 l 174 87 m 347 87 l 347 174 l 434 174 l 434 87 l 347 87 m 260 174 l 260 347 l 347 347 l 347 174 l 260 174 m 174 347 l 174 434 l 260 434 l 260 347 l 174 347 m 347 347 l 347 434 l 434 434 l 434 347 l 347 347 m 87 434 l 87 521 l 174 521 l 174 434 l 87 434 m 434 434 l 434 521 l 521 521 l 521 434 l 434 434 z "},"ц":{"ha":608,"x_min":87,"x_max":608,"o":"m 521 -174 l 521 0 l 87 0 l 87 521 l 174 521 l 174 87 l 434 87 l 434 521 l 521 521 l 521 87 l 608 87 l 608 -174 l 521 -174 z "},"ч":{"ha":608,"x_min":87,"x_max":521,"o":"m 87 260 l 87 521 l 174 521 l 174 260 l 87 260 m 434 0 l 434 174 l 174 174 l 174 260 l 434 260 l 434 521 l 521 521 l 521 0 l 434 0 z "},"ш":{"ha":608,"x_min":87,"x_max":521,"o":"m 87 0 l 87 521 l 174 521 l 174 87 l 260 87 l 260 521 l 347 521 l 347 87 l 434 87 l 434 521 l 521 521 l 521 0 l 87 0 z "},"щ":{"ha":608,"x_min":87,"x_max":608,"o":"m 521 -174 l 521 0 l 87 0 l 87 521 l 174 521 l 174 87 l 260 87 l 260 521 l 347 521 l 347 87 l 434 87 l 434 521 l 521 521 l 521 87 l 608 87 l 608 -174 l 521 -174 z "},"ъ":{"ha":608,"x_min":0,"x_max":521,"o":"m 434 87 l 434 260 l 521 260 l 521 87 l 434 87 m 174 0 l 174 434 l 0 434 l 0 521 l 260 521 l 260 347 l 434 347 l 434 260 l 260 260 l 260 87 l 434 87 l 434 0 l 174 0 z "},"ы":{"ha":608,"x_min":87,"x_max":608,"o":"m 347 87 l 347 260 l 434 260 l 434 87 l 347 87 m 87 0 l 87 521 l 174 521 l 174 347 l 347 347 l 347 260 l 174 260 l 174 87 l 347 87 l 347 0 l 87 0 m 521 0 l 521 521 l 608 521 l 608 0 l 521 0 z "},"ь":{"ha":608,"x_min":174,"x_max":521,"o":"m 434 87 l 434 260 l 521 260 l 521 87 l 434 87 m 174 0 l 174 521 l 260 521 l 260 347 l 434 347 l 434 260 l 260 260 l 260 87 l 434 87 l 434 0 l 174 0 z "},"э":{"ha":608,"x_min":87,"x_max":521,"o":"m 174 0 l 174 87 l 434 87 l 434 0 l 174 0 m 87 87 l 87 174 l 174 174 l 174 87 l 87 87 m 87 347 l 87 434 l 174 434 l 174 347 l 87 347 m 434 87 l 434 260 l 260 260 l 260 347 l 434 347 l 434 434 l 521 434 l 521 87 l 434 87 m 174 434 l 174 521 l 434 521 l 434 434 l 174 434 z "},"ю":{"ha":608,"x_min":0,"x_max":608,"o":"m 260 0 l 260 87 l 521 87 l 521 0 l 260 0 m 521 87 l 521 434 l 608 434 l 608 87 l 521 87 m 0 0 l 0 521 l 87 521 l 87 347 l 174 347 l 174 434 l 260 434 l 260 87 l 174 87 l 174 260 l 87 260 l 87 0 l 0 0 m 260 434 l 260 521 l 521 521 l 521 434 l 260 434 z "},"я":{"ha":608,"x_min":87,"x_max":521,"o":"m 87 0 l 87 87 l 174 87 l 174 0 l 87 0 m 87 260 l 87 434 l 174 434 l 174 260 l 87 260 m 434 0 l 434 174 l 260 174 l 260 87 l 174 87 l 174 260 l 434 260 l 434 434 l 174 434 l 174 521 l 521 521 l 521 0 l 434 0 z "},"ѐ":{"ha":608,"x_min":87,"x_max":521,"o":"m 174 0 l 174 87 l 434 87 l 434 0 l 174 0 m 434 87 l 434 174 l 521 174 l 521 87 l 434 87 m 87 87 l 87 434 l 174 434 l 174 347 l 434 347 l 434 434 l 521 434 l 521 260 l 174 260 l 174 87 l 87 87 m 174 434 l 174 521 l 434 521 l 434 434 l 174 434 m 260 608 l 260 694 l 347 694 l 347 608 l 260 608 m 174 694 l 174 781 l 260 781 l 260 694 l 174 694 z "},"ё":{"ha":608,"x_min":87,"x_max":521,"o":"m 174 0 l 174 87 l 434 87 l 434 0 l 174 0 m 434 87 l 434 174 l 521 174 l 521 87 l 434 87 m 87 87 l 87 434 l 174 434 l 174 347 l 434 347 l 434 434 l 521 434 l 521 260 l 174 260 l 174 87 l 87 87 m 174 434 l 174 521 l 434 521 l 434 434 l 174 434 m 174 608 l 174 694 l 260 694 l 260 608 l 174 608 m 347 608 l 347 694 l 434 694 l 434 608 l 347 608 z "},"ђ":{"ha":608,"x_min":87,"x_max":608,"o":"m 434 -260 l 434 -174 l 521 -174 l 521 -260 l 434 -260 m 521 -174 l 521 434 l 608 434 l 608 -174 l 521 -174 m 174 0 l 174 608 l 87 608 l 87 694 l 174 694 l 174 781 l 260 781 l 260 694 l 434 694 l 434 608 l 260 608 l 260 521 l 521 521 l 521 434 l 260 434 l 260 0 l 174 0 z "},"є":{"ha":608,"x_min":87,"x_max":521,"o":"m 174 0 l 174 87 l 434 87 l 434 0 l 174 0 m 434 87 l 434 174 l 521 174 l 521 87 l 434 87 m 87 87 l 87 434 l 174 434 l 174 347 l 347 347 l 347 260 l 174 260 l 174 87 l 87 87 m 434 347 l 434 434 l 521 434 l 521 347 l 434 347 m 174 434 l 174 521 l 434 521 l 434 434 l 174 434 z "},"ѕ":{"ha":608,"x_min":87,"x_max":521,"o":"m 87 0 l 87 87 l 434 87 l 434 0 l 87 0 m 434 87 l 434 174 l 521 174 l 521 87 l 434 87 m 347 174 l 347 260 l 434 260 l 434 174 l 347 174 m 174 260 l 174 347 l 347 347 l 347 260 l 174 260 m 87 347 l 87 434 l 174 434 l 174 347 l 87 347 m 174 434 l 174 521 l 521 521 l 521 434 l 174 434 z "},"і":{"ha":608,"x_min":174,"x_max":347,"o":"m 260 0 l 260 434 l 174 434 l 174 521 l 347 521 l 347 0 l 260 0 m 260 694 l 260 781 l 347 781 l 347 694 l 260 694 z "},"ї":{"ha":608,"x_min":174,"x_max":434,"o":"m 260 0 l 260 434 l 174 434 l 174 521 l 347 521 l 347 0 l 260 0 m 174 694 l 174 781 l 260 781 l 260 694 l 174 694 m 347 694 l 347 781 l 434 781 l 434 694 l 347 694 z "},"ј":{"ha":608,"x_min":87,"x_max":434,"o":"m 87 -174 l 87 -87 l 347 -87 l 347 -174 l 87 -174 m 347 -87 l 347 434 l 260 434 l 260 521 l 434 521 l 434 -87 l 347 -87 m 347 694 l 347 781 l 434 781 l 434 694 l 347 694 z "},"љ":{"ha":608,"x_min":0,"x_max":608,"o":"m 0 0 l 0 87 l 87 87 l 87 0 l 0 0 m 521 87 l 521 260 l 608 260 l 608 87 l 521 87 m 347 0 l 347 434 l 174 434 l 174 87 l 87 87 l 87 521 l 434 521 l 434 347 l 521 347 l 521 260 l 434 260 l 434 87 l 521 87 l 521 0 l 347 0 z "},"њ":{"ha":608,"x_min":0,"x_max":608,"o":"m 521 87 l 521 260 l 608 260 l 608 87 l 521 87 m 0 0 l 0 521 l 87 521 l 87 347 l 347 347 l 347 521 l 434 521 l 434 347 l 521 347 l 521 260 l 434 260 l 434 87 l 521 87 l 521 0 l 347 0 l 347 260 l 87 260 l 87 0 l 0 0 z "},"ћ":{"ha":608,"x_min":0,"x_max":521,"o":"m 434 0 l 434 434 l 521 434 l 521 0 l 434 0 m 87 0 l 87 608 l 0 608 l 0 694 l 87 694 l 87 781 l 174 781 l 174 694 l 347 694 l 347 608 l 174 608 l 174 521 l 434 521 l 434 434 l 174 434 l 174 0 l 87 0 z "},"ў":{"ha":608,"x_min":87,"x_max":521,"o":"m 174 -260 l 174 -174 l 260 -174 l 260 -260 l 174 -260 m 260 -174 l 260 87 l 347 87 l 347 -174 l 260 -174 m 174 87 l 174 347 l 260 347 l 260 87 l 174 87 m 347 87 l 347 347 l 434 347 l 434 87 l 347 87 m 87 347 l 87 521 l 174 521 l 174 347 l 87 347 m 434 347 l 434 521 l 521 521 l 521 347 l 434 347 m 260 521 l 260 608 l 347 608 l 347 521 l 260 521 m 174 608 l 174 694 l 260 694 l 260 608 l 174 608 m 347 608 l 347 694 l 434 694 l 434 608 l 347 608 z "},"џ":{"ha":608,"x_min":87,"x_max":521,"o":"m 260 -174 l 260 0 l 87 0 l 87 521 l 174 521 l 174 87 l 434 87 l 434 521 l 521 521 l 521 0 l 347 0 l 347 -174 l 260 -174 z "},"א":{"ha":608,"x_min":87,"x_max":608,"o":"m 521 0 l 521 174 l 608 174 l 608 0 l 521 0 m 434 174 l 434 260 l 521 260 l 521 174 l 434 174 m 347 260 l 347 347 l 434 347 l 434 260 l 347 260 m 87 0 l 87 434 l 174 434 l 174 87 l 260 87 l 260 0 l 87 0 m 260 347 l 260 434 l 347 434 l 347 347 l 260 347 m 174 434 l 174 521 l 260 521 l 260 434 l 174 434 m 87 521 l 87 608 l 174 608 l 174 521 l 87 521 m 521 260 l 521 521 l 434 521 l 434 608 l 608 608 l 608 260 l 521 260 z "},"ב":{"ha":608,"x_min":87,"x_max":608,"o":"m 87 0 l 87 87 l 434 87 l 434 521 l 521 521 l 521 87 l 608 87 l 608 0 l 87 0 m 174 521 l 174 608 l 434 608 l 434 521 l 174 521 z "},"ג":{"ha":608,"x_min":174,"x_max":521,"o":"m 174 0 l 174 87 l 260 87 l 260 0 l 174 0 m 260 87 l 260 174 l 347 174 l 347 87 l 260 87 m 434 0 l 434 174 l 347 174 l 347 260 l 434 260 l 434 521 l 521 521 l 521 0 l 434 0 m 260 521 l 260 608 l 434 608 l 434 521 l 260 521 z "},"ד":{"ha":608,"x_min":87,"x_max":608,"o":"m 434 0 l 434 521 l 87 521 l 87 608 l 608 608 l 608 521 l 521 521 l 521 0 l 434 0 z "},"ה":{"ha":608,"x_min":87,"x_max":608,"o":"m 87 0 l 87 260 l 174 260 l 174 0 l 87 0 m 521 0 l 521 521 l 608 521 l 608 0 l 521 0 m 87 521 l 87 608 l 521 608 l 521 521 l 87 521 z "},"ו":{"ha":608,"x_min":260,"x_max":434,"o":"m 347 0 l 347 521 l 434 521 l 434 0 l 347 0 m 260 521 l 260 608 l 347 608 l 347 521 l 260 521 z "},"ז":{"ha":608,"x_min":174,"x_max":521,"o":"m 260 0 l 260 434 l 347 434 l 347 0 l 260 0 m 347 434 l 347 521 l 174 521 l 174 608 l 521 608 l 521 521 l 434 521 l 434 434 l 347 434 z "},"ח":{"ha":608,"x_min":87,"x_max":608,"o":"m 521 0 l 521 521 l 608 521 l 608 0 l 521 0 m 87 0 l 87 608 l 521 608 l 521 521 l 174 521 l 174 0 l 87 0 z "},"ט":{"ha":608,"x_min":87,"x_max":608,"o":"m 174 0 l 174 87 l 521 87 l 521 0 l 174 0 m 347 434 l 347 521 l 434 521 l 434 434 l 347 434 m 87 87 l 87 608 l 174 608 l 174 87 l 87 87 m 521 87 l 521 521 l 434 521 l 434 608 l 608 608 l 608 87 l 521 87 z "},"י":{"ha":608,"x_min":260,"x_max":434,"o":"m 347 260 l 347 521 l 434 521 l 434 260 l 347 260 m 260 521 l 260 608 l 347 608 l 347 521 l 260 521 z "},"ך":{"ha":608,"x_min":87,"x_max":521,"o":"m 434 -260 l 434 521 l 521 521 l 521 -260 l 434 -260 m 87 521 l 87 608 l 434 608 l 434 521 l 87 521 z "},"כ":{"ha":608,"x_min":87,"x_max":521,"o":"m 87 0 l 87 87 l 434 87 l 434 0 l 87 0 m 434 87 l 434 521 l 521 521 l 521 87 l 434 87 m 87 521 l 87 608 l 434 608 l 434 521 l 87 521 z "},"ל":{"ha":608,"x_min":87,"x_max":521,"o":"m 174 0 l 174 174 l 260 174 l 260 0 l 174 0 m 260 174 l 260 260 l 347 260 l 347 174 l 260 174 m 347 260 l 347 347 l 434 347 l 434 260 l 347 260 m 434 347 l 434 521 l 87 521 l 87 781 l 174 781 l 174 608 l 521 608 l 521 347 l 434 347 z "},"ם":{"ha":608,"x_min":0,"x_max":608,"o":"m 87 0 l 87 434 l 174 434 l 174 87 l 521 87 l 521 521 l 608 521 l 608 0 l 87 0 m 174 434 l 174 521 l 0 521 l 0 608 l 521 608 l 521 521 l 260 521 l 260 434 l 174 434 z "},"מ":{"ha":608,"x_min":87,"x_max":608,"o":"m 87 0 l 87 347 l 174 347 l 174 0 l 87 0 m 174 347 l 174 521 l 347 521 l 347 434 l 260 434 l 260 347 l 174 347 m 347 0 l 347 87 l 521 87 l 521 521 l 608 521 l 608 0 l 347 0 m 87 521 l 87 608 l 174 608 l 174 521 l 87 521 m 347 521 l 347 608 l 521 608 l 521 521 l 347 521 z "},"ן":{"ha":608,"x_min":260,"x_max":434,"o":"m 347 -260 l 347 521 l 434 521 l 434 -260 l 347 -260 m 260 521 l 260 608 l 347 608 l 347 521 l 260 521 z "},"נ":{"ha":608,"x_min":174,"x_max":434,"o":"m 174 0 l 174 87 l 347 87 l 347 521 l 434 521 l 434 0 l 174 0 m 260 521 l 260 608 l 347 608 l 347 521 l 260 521 z "},"ס":{"ha":608,"x_min":87,"x_max":608,"o":"m 260 0 l 260 87 l 434 87 l 434 0 l 260 0 m 174 87 l 174 174 l 260 174 l 260 87 l 174 87 m 434 87 l 434 174 l 521 174 l 521 87 l 434 87 m 87 174 l 87 434 l 174 434 l 174 174 l 87 174 m 521 174 l 521 434 l 608 434 l 608 174 l 521 174 m 174 434 l 174 521 l 87 521 l 87 608 l 521 608 l 521 434 l 434 434 l 434 521 l 260 521 l 260 434 l 174 434 z "},"ע":{"ha":608,"x_min":87,"x_max":608,"o":"m 87 0 l 87 87 l 260 87 l 260 347 l 347 347 l 347 87 l 521 87 l 521 0 l 87 0 m 174 347 l 174 521 l 260 521 l 260 347 l 174 347 m 87 521 l 87 608 l 174 608 l 174 521 l 87 521 m 521 87 l 521 608 l 608 608 l 608 87 l 521 87 z "},"ף":{"ha":608,"x_min":87,"x_max":608,"o":"m 87 260 l 87 521 l 174 521 l 174 347 l 347 347 l 347 260 l 87 260 m 521 -260 l 521 521 l 608 521 l 608 -260 l 521 -260 m 174 521 l 174 608 l 521 608 l 521 521 l 174 521 z "},"פ":{"ha":608,"x_min":87,"x_max":608,"o":"m 87 260 l 87 521 l 174 521 l 174 347 l 347 347 l 347 260 l 87 260 m 87 0 l 87 87 l 521 87 l 521 521 l 608 521 l 608 0 l 87 0 m 174 521 l 174 608 l 521 608 l 521 521 l 174 521 z "},"ץ":{"ha":608,"x_min":87,"x_max":521,"o":"m 260 -260 l 260 260 l 347 260 l 347 -260 l 260 -260 m 347 260 l 347 347 l 434 347 l 434 260 l 347 260 m 174 260 l 174 434 l 260 434 l 260 260 l 174 260 m 87 434 l 87 608 l 174 608 l 174 434 l 87 434 m 434 347 l 434 608 l 521 608 l 521 347 l 434 347 z "},"צ":{"ha":608,"x_min":87,"x_max":521,"o":"m 87 0 l 87 87 l 434 87 l 434 174 l 521 174 l 521 0 l 87 0 m 347 174 l 347 260 l 260 260 l 260 347 l 434 347 l 434 174 l 347 174 m 174 347 l 174 434 l 260 434 l 260 347 l 174 347 m 87 434 l 87 608 l 174 608 l 174 434 l 87 434 m 434 347 l 434 608 l 521 608 l 521 347 l 434 347 z "},"ק":{"ha":608,"x_min":87,"x_max":521,"o":"m 87 -260 l 87 260 l 174 260 l 174 -260 l 87 -260 m 260 0 l 260 260 l 347 260 l 347 0 l 260 0 m 347 260 l 347 347 l 434 347 l 434 260 l 347 260 m 434 347 l 434 521 l 87 521 l 87 608 l 521 608 l 521 347 l 434 347 z "},"ר":{"ha":608,"x_min":87,"x_max":521,"o":"m 434 0 l 434 521 l 521 521 l 521 0 l 434 0 m 87 521 l 87 608 l 434 608 l 434 521 l 87 521 z "},"ש":{"ha":608,"x_min":0,"x_max":608,"o":"m 174 0 l 174 87 l 434 87 l 434 0 l 174 0 m 87 87 l 87 174 l 174 174 l 174 87 l 87 87 m 434 87 l 434 174 l 521 174 l 521 87 l 434 87 m 174 174 l 174 260 l 260 260 l 260 174 l 174 174 m 0 174 l 0 608 l 87 608 l 87 174 l 0 174 m 260 260 l 260 608 l 347 608 l 347 260 l 260 260 m 521 174 l 521 608 l 608 608 l 608 174 l 521 174 z "},"ת":{"ha":608,"x_min":0,"x_max":608,"o":"m 521 0 l 521 521 l 608 521 l 608 0 l 521 0 m 0 0 l 0 87 l 87 87 l 87 521 l 0 521 l 0 608 l 521 608 l 521 521 l 174 521 l 174 0 l 0 0 z "},"׳":{"ha":608,"x_min":260,"x_max":434,"o":"m 260 521 l 260 608 l 347 608 l 347 521 l 260 521 m 347 608 l 347 694 l 434 694 l 434 608 l 347 608 z "},"״":{"ha":608,"x_min":87,"x_max":521,"o":"m 87 521 l 87 608 l 174 608 l 174 521 l 87 521 m 347 521 l 347 608 l 434 608 l 434 521 l 347 521 m 174 608 l 174 694 l 260 694 l 260 608 l 174 608 m 434 608 l 434 694 l 521 694 l 521 608 l 434 608 z "},"‘":{"ha":608,"x_min":260,"x_max":434,"o":"m 347 521 l 347 608 l 434 608 l 434 521 l 347 521 m 260 608 l 260 781 l 347 781 l 347 608 l 260 608 z "},"’":{"ha":608,"x_min":174,"x_max":347,"o":"m 174 521 l 174 608 l 260 608 l 260 521 l 174 521 m 260 608 l 260 781 l 347 781 l 347 608 l 260 608 z "},"‚":{"ha":608,"x_min":174,"x_max":347,"o":"m 174 -174 l 174 -87 l 260 -87 l 260 -174 l 174 -174 m 260 -87 l 260 174 l 347 174 l 347 -87 l 260 -87 z "},"‛":{"ha":608,"x_min":174,"x_max":347,"o":"m 260 434 l 260 521 l 347 521 l 347 434 l 260 434 m 174 521 l 174 781 l 260 781 l 260 521 l 174 521 z "},"“":{"ha":608,"x_min":174,"x_max":521,"o":"m 260 521 l 260 608 l 347 608 l 347 521 l 260 521 m 434 521 l 434 608 l 521 608 l 521 521 l 434 521 m 174 608 l 174 781 l 260 781 l 260 608 l 174 608 m 347 608 l 347 781 l 434 781 l 434 608 l 347 608 z "},"”":{"ha":608,"x_min":87,"x_max":434,"o":"m 87 521 l 87 608 l 174 608 l 174 521 l 87 521 m 260 521 l 260 608 l 347 608 l 347 521 l 260 521 m 174 608 l 174 781 l 260 781 l 260 608 l 174 608 m 347 608 l 347 781 l 434 781 l 434 608 l 347 608 z "},"„":{"ha":608,"x_min":87,"x_max":434,"o":"m 87 -174 l 87 -87 l 174 -87 l 174 -174 l 87 -174 m 260 -174 l 260 -87 l 347 -87 l 347 -174 l 260 -174 m 174 -87 l 174 174 l 260 174 l 260 -87 l 174 -87 m 347 -87 l 347 174 l 434 174 l 434 -87 l 347 -87 z "},"‹":{"ha":608,"x_min":87,"x_max":347,"o":"m 260 87 l 260 174 l 347 174 l 347 87 l 260 87 m 174 174 l 174 260 l 260 260 l 260 174 l 174 174 m 87 260 l 87 347 l 174 347 l 174 260 l 87 260 m 174 347 l 174 434 l 260 434 l 260 347 l 174 347 m 260 434 l 260 521 l 347 521 l 347 434 l 260 434 z "},"›":{"ha":608,"x_min":87,"x_max":347,"o":"m 87 87 l 87 174 l 174 174 l 174 87 l 87 87 m 174 174 l 174 260 l 260 260 l 260 174 l 174 174 m 260 260 l 260 347 l 347 347 l 347 260 l 260 260 m 174 347 l 174 434 l 260 434 l 260 347 l 174 347 m 87 434 l 87 521 l 174 521 l 174 434 l 87 434 z "},"€":{"ha":608,"x_min":87,"x_max":608,"o":"m 260 0 l 260 87 l 521 87 l 521 0 l 260 0 m 521 87 l 521 174 l 608 174 l 608 87 l 521 87 m 174 87 l 174 174 l 87 174 l 87 260 l 174 260 l 174 347 l 87 347 l 87 434 l 174 434 l 174 521 l 260 521 l 260 434 l 434 434 l 434 347 l 260 347 l 260 260 l 434 260 l 434 174 l 260 174 l 260 87 l 174 87 m 521 434 l 521 521 l 608 521 l 608 434 l 521 434 m 260 521 l 260 608 l 521 608 l 521 521 l 260 521 z "},"™":{"ha":608,"x_min":0,"x_max":608,"o":"m 87 347 l 87 608 l 0 608 l 0 694 l 260 694 l 260 608 l 174 608 l 174 347 l 87 347 m 347 347 l 347 694 l 434 694 l 434 608 l 521 608 l 521 694 l 608 694 l 608 347 l 521 347 l 521 521 l 434 521 l 434 347 l 347 347 z "},"∑":{"ha":608,"x_min":0,"x_max":434,"o":"m 0 0 l 0 174 l 87 174 l 87 87 l 434 87 l 434 0 l 0 0 m 87 174 l 87 260 l 174 260 l 174 174 l 87 174 m 174 260 l 174 347 l 260 347 l 260 260 l 174 260 m 260 347 l 260 434 l 347 434 l 347 347 l 260 347 m 174 434 l 174 521 l 260 521 l 260 434 l 174 434 m 87 521 l 87 608 l 0 608 l 0 694 l 434 694 l 434 608 l 174 608 l 174 521 l 87 521 z "},"√":{"ha":608,"x_min":0,"x_max":608,"o":"m 260 0 l 260 174 l 347 174 l 347 0 l 260 0 m 174 174 l 174 347 l 260 347 l 260 174 l 174 174 m 347 174 l 347 434 l 434 434 l 434 174 l 347 174 m 87 347 l 87 434 l 0 434 l 0 521 l 174 521 l 174 347 l 87 347 m 434 434 l 434 608 l 521 608 l 521 434 l 434 434 m 521 608 l 521 781 l 608 781 l 608 608 l 521 608 z "},"∞":{"ha":608,"x_min":87,"x_max":608,"o":"m 260 260 l 260 347 l 174 347 l 174 260 l 260 260 m 521 260 l 521 347 l 434 347 l 434 260 l 521 260 m 87 174 l 87 434 l 608 434 l 608 174 l 87 174 z "},"∫":{"ha":608,"x_min":0,"x_max":260,"o":"m 0 -174 l 0 -87 l 87 -87 l 87 -174 l 0 -174 m 87 -87 l 87 781 l 174 781 l 174 -87 l 87 -87 m 174 781 l 174 868 l 260 868 l 260 781 l 174 781 z "},"⌗":{"ha":608,"x_min":87,"x_max":608,"o":"m 434 174 l 434 347 l 260 347 l 260 174 l 434 174 m 174 0 l 174 87 l 87 87 l 87 174 l 174 174 l 174 347 l 87 347 l 87 434 l 174 434 l 174 521 l 260 521 l 260 434 l 434 434 l 434 521 l 521 521 l 521 434 l 608 434 l 608 347 l 521 347 l 521 174 l 608 174 l 608 87 l 521 87 l 521 0 l 434 0 l 434 87 l 260 87 l 260 0 l 174 0 z "}}}
